<svg width="240" height="68" viewBox="0 0 240 68" fill="none" xmlns="http://www.w3.org/2000/svg">
<g clip-path="url(#clip0)">
<rect width="240" height="72" fill="white"/>
<path d="M94.928 47.808H88.256L87.152 51H83.624L89.648 34.224H93.56L99.584 51H96.032L94.928 47.808ZM94.016 45.12L91.592 38.112L89.168 45.12H94.016ZM105.196 39.624C105.628 39.016 106.22 38.512 106.972 38.112C107.74 37.696 108.612 37.488 109.588 37.488C110.724 37.488 111.748 37.768 112.66 38.328C113.588 38.888 114.316 39.688 114.844 40.728C115.388 41.752 115.66 42.944 115.66 44.304C115.66 45.664 115.388 46.872 114.844 47.928C114.316 48.968 113.588 49.776 112.66 50.352C111.748 50.928 110.724 51.216 109.588 51.216C108.612 51.216 107.748 51.016 106.996 50.616C106.26 50.216 105.66 49.712 105.196 49.104V57.336H101.836V37.704H105.196V39.624ZM112.228 44.304C112.228 43.504 112.06 42.816 111.724 42.24C111.404 41.648 110.972 41.2 110.428 40.896C109.9 40.592 109.324 40.44 108.7 40.44C108.092 40.44 107.516 40.6 106.972 40.92C106.444 41.224 106.012 41.672 105.676 42.264C105.356 42.856 105.196 43.552 105.196 44.352C105.196 45.152 105.356 45.848 105.676 46.44C106.012 47.032 106.444 47.488 106.972 47.808C107.516 48.112 108.092 48.264 108.7 48.264C109.324 48.264 109.9 48.104 110.428 47.784C110.972 47.464 111.404 47.008 111.724 46.416C112.06 45.824 112.228 45.12 112.228 44.304ZM121.461 39.624C121.893 39.016 122.485 38.512 123.237 38.112C124.005 37.696 124.877 37.488 125.853 37.488C126.989 37.488 128.013 37.768 128.925 38.328C129.853 38.888 130.581 39.688 131.109 40.728C131.653 41.752 131.925 42.944 131.925 44.304C131.925 45.664 131.653 46.872 131.109 47.928C130.581 48.968 129.853 49.776 128.925 50.352C128.013 50.928 126.989 51.216 125.853 51.216C124.877 51.216 124.013 51.016 123.261 50.616C122.525 50.216 121.925 49.712 121.461 49.104V57.336H118.101V37.704H121.461V39.624ZM128.493 44.304C128.493 43.504 128.325 42.816 127.989 42.24C127.669 41.648 127.237 41.2 126.693 40.896C126.165 40.592 125.589 40.44 124.965 40.44C124.357 40.44 123.781 40.6 123.237 40.92C122.709 41.224 122.277 41.672 121.941 42.264C121.621 42.856 121.461 43.552 121.461 44.352C121.461 45.152 121.621 45.848 121.941 46.44C122.277 47.032 122.709 47.488 123.237 47.808C123.781 48.112 124.357 48.264 124.965 48.264C125.589 48.264 126.165 48.104 126.693 47.784C127.237 47.464 127.669 47.008 127.989 46.416C128.325 45.824 128.493 45.12 128.493 44.304ZM145.87 51.168C144.702 51.168 143.646 50.968 142.702 50.568C141.774 50.168 141.038 49.592 140.494 48.84C139.95 48.088 139.67 47.2 139.654 46.176H143.254C143.302 46.864 143.542 47.408 143.974 47.808C144.422 48.208 145.03 48.408 145.798 48.408C146.582 48.408 147.198 48.224 147.646 47.856C148.094 47.472 148.318 46.976 148.318 46.368C148.318 45.872 148.166 45.464 147.862 45.144C147.558 44.824 147.174 44.576 146.71 44.4C146.262 44.208 145.638 44 144.838 43.776C143.75 43.456 142.862 43.144 142.174 42.84C141.502 42.52 140.918 42.048 140.422 41.424C139.942 40.784 139.702 39.936 139.702 38.88C139.702 37.888 139.95 37.024 140.446 36.288C140.942 35.552 141.638 34.992 142.534 34.608C143.43 34.208 144.454 34.008 145.606 34.008C147.334 34.008 148.734 34.432 149.806 35.28C150.894 36.112 151.494 37.28 151.606 38.784H147.91C147.878 38.208 147.63 37.736 147.166 37.368C146.718 36.984 146.118 36.792 145.366 36.792C144.71 36.792 144.182 36.96 143.782 37.296C143.398 37.632 143.206 38.12 143.206 38.76C143.206 39.208 143.35 39.584 143.638 39.888C143.942 40.176 144.31 40.416 144.742 40.608C145.19 40.784 145.814 40.992 146.614 41.232C147.702 41.552 148.59 41.872 149.278 42.192C149.966 42.512 150.558 42.992 151.054 43.632C151.55 44.272 151.798 45.112 151.798 46.152C151.798 47.048 151.566 47.88 151.102 48.648C150.638 49.416 149.958 50.032 149.062 50.496C148.166 50.944 147.102 51.168 145.87 51.168ZM158.623 40.464V46.896C158.623 47.344 158.727 47.672 158.935 47.88C159.159 48.072 159.527 48.168 160.039 48.168H161.599V51H159.487C156.655 51 155.239 49.624 155.239 46.872V40.464H153.655V37.704H155.239V34.416H158.623V37.704H161.599V40.464H158.623ZM169.919 51.216C168.639 51.216 167.487 50.936 166.463 50.376C165.439 49.8 164.631 48.992 164.039 47.952C163.463 46.912 163.175 45.712 163.175 44.352C163.175 42.992 163.471 41.792 164.063 40.752C164.671 39.712 165.495 38.912 166.535 38.352C167.575 37.776 168.735 37.488 170.015 37.488C171.295 37.488 172.455 37.776 173.495 38.352C174.535 38.912 175.351 39.712 175.943 40.752C176.551 41.792 176.855 42.992 176.855 44.352C176.855 45.712 176.543 46.912 175.919 47.952C175.311 48.992 174.479 49.8 173.423 50.376C172.383 50.936 171.215 51.216 169.919 51.216ZM169.919 48.288C170.527 48.288 171.095 48.144 171.623 47.856C172.167 47.552 172.599 47.104 172.919 46.512C173.239 45.92 173.399 45.2 173.399 44.352C173.399 43.088 173.063 42.12 172.391 41.448C171.735 40.76 170.927 40.416 169.967 40.416C169.007 40.416 168.199 40.76 167.543 41.448C166.903 42.12 166.583 43.088 166.583 44.352C166.583 45.616 166.895 46.592 167.519 47.28C168.159 47.952 168.959 48.288 169.919 48.288ZM182.68 39.768C183.112 39.064 183.672 38.512 184.36 38.112C185.064 37.712 185.864 37.512 186.76 37.512V41.04H185.872C184.816 41.04 184.016 41.288 183.472 41.784C182.944 42.28 182.68 43.144 182.68 44.376V51H179.32V37.704H182.68V39.768ZM201.383 44.064C201.383 44.544 201.351 44.976 201.287 45.36H191.567C191.647 46.32 191.983 47.072 192.575 47.616C193.167 48.16 193.895 48.432 194.759 48.432C196.007 48.432 196.895 47.896 197.423 46.824H201.047C200.663 48.104 199.927 49.16 198.839 49.992C197.751 50.808 196.415 51.216 194.831 51.216C193.551 51.216 192.399 50.936 191.375 50.376C190.367 49.8 189.575 48.992 188.999 47.952C188.439 46.912 188.159 45.712 188.159 44.352C188.159 42.976 188.439 41.768 188.999 40.728C189.559 39.688 190.343 38.888 191.351 38.328C192.359 37.768 193.519 37.488 194.831 37.488C196.095 37.488 197.223 37.76 198.215 38.304C199.223 38.848 199.999 39.624 200.543 40.632C201.103 41.624 201.383 42.768 201.383 44.064ZM197.903 43.104C197.887 42.24 197.575 41.552 196.967 41.04C196.359 40.512 195.615 40.248 194.735 40.248C193.903 40.248 193.199 40.504 192.623 41.016C192.063 41.512 191.719 42.208 191.591 43.104H197.903Z" fill="black"/>
<path d="M89.846 21.83H85.59L84.806 24H83.462L86.99 14.298H88.46L91.974 24H90.63L89.846 21.83ZM89.482 20.794L87.718 15.866L85.954 20.794H89.482ZM96.3676 22.824L98.7476 16.328H100.106L97.0956 24H95.6116L92.6016 16.328H93.9736L96.3676 22.824ZM100.883 20.136C100.883 19.352 101.042 18.666 101.359 18.078C101.677 17.4807 102.111 17.0187 102.661 16.692C103.221 16.3653 103.842 16.202 104.523 16.202C105.195 16.202 105.779 16.3467 106.273 16.636C106.768 16.9253 107.137 17.2893 107.379 17.728V16.328H108.667V24H107.379V22.572C107.127 23.02 106.749 23.3933 106.245 23.692C105.751 23.9813 105.172 24.126 104.509 24.126C103.828 24.126 103.212 23.958 102.661 23.622C102.111 23.286 101.677 22.8147 101.359 22.208C101.042 21.6013 100.883 20.9107 100.883 20.136ZM107.379 20.15C107.379 19.5713 107.263 19.0673 107.029 18.638C106.796 18.2087 106.479 17.882 106.077 17.658C105.685 17.4247 105.251 17.308 104.775 17.308C104.299 17.308 103.865 17.42 103.473 17.644C103.081 17.868 102.769 18.1947 102.535 18.624C102.302 19.0533 102.185 19.5573 102.185 20.136C102.185 20.724 102.302 21.2373 102.535 21.676C102.769 22.1053 103.081 22.4367 103.473 22.67C103.865 22.894 104.299 23.006 104.775 23.006C105.251 23.006 105.685 22.894 106.077 22.67C106.479 22.4367 106.796 22.1053 107.029 21.676C107.263 21.2373 107.379 20.7287 107.379 20.15ZM111.478 15.082C111.236 15.082 111.03 14.998 110.862 14.83C110.694 14.662 110.61 14.4567 110.61 14.214C110.61 13.9713 110.694 13.766 110.862 13.598C111.03 13.43 111.236 13.346 111.478 13.346C111.712 13.346 111.908 13.43 112.066 13.598C112.234 13.766 112.318 13.9713 112.318 14.214C112.318 14.4567 112.234 14.662 112.066 14.83C111.908 14.998 111.712 15.082 111.478 15.082ZM112.094 16.328V24H110.82V16.328H112.094ZM115.54 13.64V24H114.266V13.64H115.54ZM117.235 20.136C117.235 19.352 117.393 18.666 117.711 18.078C118.028 17.4807 118.462 17.0187 119.013 16.692C119.573 16.3653 120.193 16.202 120.875 16.202C121.547 16.202 122.13 16.3467 122.625 16.636C123.119 16.9253 123.488 17.2893 123.731 17.728V16.328H125.019V24H123.731V22.572C123.479 23.02 123.101 23.3933 122.597 23.692C122.102 23.9813 121.523 24.126 120.861 24.126C120.179 24.126 119.563 23.958 119.013 23.622C118.462 23.286 118.028 22.8147 117.711 22.208C117.393 21.6013 117.235 20.9107 117.235 20.136ZM123.731 20.15C123.731 19.5713 123.614 19.0673 123.381 18.638C123.147 18.2087 122.83 17.882 122.429 17.658C122.037 17.4247 121.603 17.308 121.127 17.308C120.651 17.308 120.217 17.42 119.825 17.644C119.433 17.868 119.12 18.1947 118.887 18.624C118.653 19.0533 118.537 19.5573 118.537 20.136C118.537 20.724 118.653 21.2373 118.887 21.676C119.12 22.1053 119.433 22.4367 119.825 22.67C120.217 22.894 120.651 23.006 121.127 23.006C121.603 23.006 122.037 22.894 122.429 22.67C122.83 22.4367 123.147 22.1053 123.381 21.676C123.614 21.2373 123.731 20.7287 123.731 20.15ZM128.446 17.756C128.707 17.2987 129.09 16.9253 129.594 16.636C130.098 16.3467 130.672 16.202 131.316 16.202C132.006 16.202 132.627 16.3653 133.178 16.692C133.728 17.0187 134.162 17.4807 134.48 18.078C134.797 18.666 134.956 19.352 134.956 20.136C134.956 20.9107 134.797 21.6013 134.48 22.208C134.162 22.8147 133.724 23.286 133.164 23.622C132.613 23.958 131.997 24.126 131.316 24.126C130.653 24.126 130.07 23.9813 129.566 23.692C129.071 23.4027 128.698 23.034 128.446 22.586V24H127.172V13.64H128.446V17.756ZM133.654 20.136C133.654 19.5573 133.537 19.0533 133.304 18.624C133.07 18.1947 132.753 17.868 132.352 17.644C131.96 17.42 131.526 17.308 131.05 17.308C130.583 17.308 130.149 17.4247 129.748 17.658C129.356 17.882 129.038 18.2133 128.796 18.652C128.562 19.0813 128.446 19.5807 128.446 20.15C128.446 20.7287 128.562 21.2373 128.796 21.676C129.038 22.1053 129.356 22.4367 129.748 22.67C130.149 22.894 130.583 23.006 131.05 23.006C131.526 23.006 131.96 22.894 132.352 22.67C132.753 22.4367 133.07 22.1053 133.304 21.676C133.537 21.2373 133.654 20.724 133.654 20.136ZM137.907 13.64V24H136.633V13.64H137.907ZM147.078 19.87C147.078 20.1127 147.064 20.3693 147.036 20.64H140.904C140.951 21.396 141.207 21.9887 141.674 22.418C142.15 22.838 142.724 23.048 143.396 23.048C143.947 23.048 144.404 22.922 144.768 22.67C145.141 22.4087 145.403 22.0633 145.552 21.634H146.924C146.719 22.3713 146.308 22.9733 145.692 23.44C145.076 23.8973 144.311 24.126 143.396 24.126C142.668 24.126 142.015 23.9627 141.436 23.636C140.867 23.3093 140.419 22.8473 140.092 22.25C139.765 21.6433 139.602 20.9433 139.602 20.15C139.602 19.3567 139.761 18.6613 140.078 18.064C140.395 17.4667 140.839 17.0093 141.408 16.692C141.987 16.3653 142.649 16.202 143.396 16.202C144.124 16.202 144.768 16.3607 145.328 16.678C145.888 16.9953 146.317 17.434 146.616 17.994C146.924 18.5447 147.078 19.17 147.078 19.87ZM145.762 19.604C145.762 19.1187 145.655 18.7033 145.44 18.358C145.225 18.0033 144.931 17.7373 144.558 17.56C144.194 17.3733 143.788 17.28 143.34 17.28C142.696 17.28 142.145 17.4853 141.688 17.896C141.24 18.3067 140.983 18.876 140.918 19.604H145.762ZM155.838 24.126C155.119 24.126 154.466 23.9627 153.878 23.636C153.299 23.3093 152.842 22.8473 152.506 22.25C152.179 21.6433 152.016 20.9433 152.016 20.15C152.016 19.366 152.184 18.6753 152.52 18.078C152.865 17.4713 153.332 17.0093 153.92 16.692C154.508 16.3653 155.166 16.202 155.894 16.202C156.622 16.202 157.28 16.3653 157.868 16.692C158.456 17.0093 158.918 17.4667 159.254 18.064C159.599 18.6613 159.772 19.3567 159.772 20.15C159.772 20.9433 159.595 21.6433 159.24 22.25C158.895 22.8473 158.423 23.3093 157.826 23.636C157.229 23.9627 156.566 24.126 155.838 24.126ZM155.838 23.006C156.295 23.006 156.725 22.8987 157.126 22.684C157.527 22.4693 157.849 22.1473 158.092 21.718C158.344 21.2887 158.47 20.766 158.47 20.15C158.47 19.534 158.349 19.0113 158.106 18.582C157.863 18.1527 157.546 17.8353 157.154 17.63C156.762 17.4153 156.337 17.308 155.88 17.308C155.413 17.308 154.984 17.4153 154.592 17.63C154.209 17.8353 153.901 18.1527 153.668 18.582C153.435 19.0113 153.318 19.534 153.318 20.15C153.318 20.7753 153.43 21.3027 153.654 21.732C153.887 22.1613 154.195 22.4833 154.578 22.698C154.961 22.9033 155.381 23.006 155.838 23.006ZM165.185 16.188C166.118 16.188 166.874 16.4727 167.453 17.042C168.032 17.602 168.321 18.414 168.321 19.478V24H167.061V19.66C167.061 18.8947 166.87 18.3113 166.487 17.91C166.104 17.4993 165.582 17.294 164.919 17.294C164.247 17.294 163.71 17.504 163.309 17.924C162.917 18.344 162.721 18.9553 162.721 19.758V24H161.447V16.328H162.721V17.42C162.973 17.028 163.314 16.7247 163.743 16.51C164.182 16.2953 164.662 16.188 165.185 16.188ZM175.689 17.378V21.9C175.689 22.2733 175.768 22.5393 175.927 22.698C176.085 22.8473 176.361 22.922 176.753 22.922H177.691V24H176.543C175.833 24 175.301 23.8367 174.947 23.51C174.592 23.1833 174.415 22.6467 174.415 21.9V17.378H173.421V16.328H174.415V14.396H175.689V16.328H177.691V17.378H175.689ZM183.042 16.188C183.621 16.188 184.144 16.314 184.61 16.566C185.077 16.8087 185.441 17.1773 185.702 17.672C185.973 18.1667 186.108 18.7687 186.108 19.478V24H184.848V19.66C184.848 18.8947 184.657 18.3113 184.274 17.91C183.892 17.4993 183.369 17.294 182.706 17.294C182.034 17.294 181.498 17.504 181.096 17.924C180.704 18.344 180.508 18.9553 180.508 19.758V24H179.234V13.64H180.508V17.42C180.76 17.028 181.106 16.7247 181.544 16.51C181.992 16.2953 182.492 16.188 183.042 16.188ZM195.189 19.87C195.189 20.1127 195.175 20.3693 195.147 20.64H189.015C189.062 21.396 189.319 21.9887 189.785 22.418C190.261 22.838 190.835 23.048 191.507 23.048C192.058 23.048 192.515 22.922 192.879 22.67C193.253 22.4087 193.514 22.0633 193.663 21.634H195.035C194.83 22.3713 194.419 22.9733 193.803 23.44C193.187 23.8973 192.422 24.126 191.507 24.126C190.779 24.126 190.126 23.9627 189.547 23.636C188.978 23.3093 188.53 22.8473 188.203 22.25C187.877 21.6433 187.713 20.9433 187.713 20.15C187.713 19.3567 187.872 18.6613 188.189 18.064C188.507 17.4667 188.95 17.0093 189.519 16.692C190.098 16.3653 190.761 16.202 191.507 16.202C192.235 16.202 192.879 16.3607 193.439 16.678C193.999 16.9953 194.429 17.434 194.727 17.994C195.035 18.5447 195.189 19.17 195.189 19.87ZM193.873 19.604C193.873 19.1187 193.766 18.7033 193.551 18.358C193.337 18.0033 193.043 17.7373 192.669 17.56C192.305 17.3733 191.899 17.28 191.451 17.28C190.807 17.28 190.257 17.4853 189.799 17.896C189.351 18.3067 189.095 18.876 189.029 19.604H193.873Z" fill="black"/>
<path d="M58.0979 35.03C58.0773 31.4579 59.6687 28.7657 62.8824 26.7807C61.085 24.1618 58.3657 22.7215 54.7811 22.4439C51.3871 22.1715 47.6738 24.4551 46.3142 24.4551C44.8773 24.4551 41.5914 22.5382 39.006 22.5382C33.6704 22.622 28 26.8645 28 35.4961C28 38.0468 28.4584 40.6814 29.3751 43.3945C30.6009 46.9666 35.0197 55.7187 39.6292 55.5773C42.0395 55.5196 43.7442 53.8384 46.8807 53.8384C49.9245 53.8384 51.5004 55.5773 54.1888 55.5773C58.8395 55.5092 62.8361 47.5532 64 43.9706C57.7631 40.9799 58.0979 35.2133 58.0979 35.03ZM52.685 19.0551C55.2961 15.902 55.0592 13.0318 54.982 12C52.6747 12.1362 50.0069 13.5975 48.4876 15.394C46.8137 17.3215 45.83 19.7046 46.0412 22.3915C48.5339 22.5853 50.8103 21.2811 52.685 19.0551Z" fill="black"/>
</g>
<defs>
<clipPath id="clip0">
<rect width="240" height="68" fill="white"/>
</clipPath>
</defs>
</svg>
