<svg width="240" height="64" viewBox="0 0 240 64" fill="none" xmlns="http://www.w3.org/2000/svg">
<rect width="240" height="64" rx="4" fill="black"/>
<path d="M94.928 44.808H88.256L87.152 48H83.624L89.648 31.224H93.56L99.584 48H96.032L94.928 44.808ZM94.016 42.12L91.592 35.112L89.168 42.12H94.016ZM105.196 36.624C105.628 36.016 106.22 35.512 106.972 35.112C107.74 34.696 108.612 34.488 109.588 34.488C110.724 34.488 111.748 34.768 112.66 35.328C113.588 35.888 114.316 36.688 114.844 37.728C115.388 38.752 115.66 39.944 115.66 41.304C115.66 42.664 115.388 43.872 114.844 44.928C114.316 45.968 113.588 46.776 112.66 47.352C111.748 47.928 110.724 48.216 109.588 48.216C108.612 48.216 107.748 48.016 106.996 47.616C106.26 47.216 105.66 46.712 105.196 46.104V54.336H101.836V34.704H105.196V36.624ZM112.228 41.304C112.228 40.504 112.06 39.816 111.724 39.24C111.404 38.648 110.972 38.2 110.428 37.896C109.9 37.592 109.324 37.44 108.7 37.44C108.092 37.44 107.516 37.6 106.972 37.92C106.444 38.224 106.012 38.672 105.676 39.264C105.356 39.856 105.196 40.552 105.196 41.352C105.196 42.152 105.356 42.848 105.676 43.44C106.012 44.032 106.444 44.488 106.972 44.808C107.516 45.112 108.092 45.264 108.7 45.264C109.324 45.264 109.9 45.104 110.428 44.784C110.972 44.464 111.404 44.008 111.724 43.416C112.06 42.824 112.228 42.12 112.228 41.304ZM121.461 36.624C121.893 36.016 122.485 35.512 123.237 35.112C124.005 34.696 124.877 34.488 125.853 34.488C126.989 34.488 128.013 34.768 128.925 35.328C129.853 35.888 130.581 36.688 131.109 37.728C131.653 38.752 131.925 39.944 131.925 41.304C131.925 42.664 131.653 43.872 131.109 44.928C130.581 45.968 129.853 46.776 128.925 47.352C128.013 47.928 126.989 48.216 125.853 48.216C124.877 48.216 124.013 48.016 123.261 47.616C122.525 47.216 121.925 46.712 121.461 46.104V54.336H118.101V34.704H121.461V36.624ZM128.493 41.304C128.493 40.504 128.325 39.816 127.989 39.24C127.669 38.648 127.237 38.2 126.693 37.896C126.165 37.592 125.589 37.44 124.965 37.44C124.357 37.44 123.781 37.6 123.237 37.92C122.709 38.224 122.277 38.672 121.941 39.264C121.621 39.856 121.461 40.552 121.461 41.352C121.461 42.152 121.621 42.848 121.941 43.44C122.277 44.032 122.709 44.488 123.237 44.808C123.781 45.112 124.357 45.264 124.965 45.264C125.589 45.264 126.165 45.104 126.693 44.784C127.237 44.464 127.669 44.008 127.989 43.416C128.325 42.824 128.493 42.12 128.493 41.304ZM145.87 48.168C144.702 48.168 143.646 47.968 142.702 47.568C141.774 47.168 141.038 46.592 140.494 45.84C139.95 45.088 139.67 44.2 139.654 43.176H143.254C143.302 43.864 143.542 44.408 143.974 44.808C144.422 45.208 145.03 45.408 145.798 45.408C146.582 45.408 147.198 45.224 147.646 44.856C148.094 44.472 148.318 43.976 148.318 43.368C148.318 42.872 148.166 42.464 147.862 42.144C147.558 41.824 147.174 41.576 146.71 41.4C146.262 41.208 145.638 41 144.838 40.776C143.75 40.456 142.862 40.144 142.174 39.84C141.502 39.52 140.918 39.048 140.422 38.424C139.942 37.784 139.702 36.936 139.702 35.88C139.702 34.888 139.95 34.024 140.446 33.288C140.942 32.552 141.638 31.992 142.534 31.608C143.43 31.208 144.454 31.008 145.606 31.008C147.334 31.008 148.734 31.432 149.806 32.28C150.894 33.112 151.494 34.28 151.606 35.784H147.91C147.878 35.208 147.63 34.736 147.166 34.368C146.718 33.984 146.118 33.792 145.366 33.792C144.71 33.792 144.182 33.96 143.782 34.296C143.398 34.632 143.206 35.12 143.206 35.76C143.206 36.208 143.35 36.584 143.638 36.888C143.942 37.176 144.31 37.416 144.742 37.608C145.19 37.784 145.814 37.992 146.614 38.232C147.702 38.552 148.59 38.872 149.278 39.192C149.966 39.512 150.558 39.992 151.054 40.632C151.55 41.272 151.798 42.112 151.798 43.152C151.798 44.048 151.566 44.88 151.102 45.648C150.638 46.416 149.958 47.032 149.062 47.496C148.166 47.944 147.102 48.168 145.87 48.168ZM158.623 37.464V43.896C158.623 44.344 158.727 44.672 158.935 44.88C159.159 45.072 159.527 45.168 160.039 45.168H161.599V48H159.487C156.655 48 155.239 46.624 155.239 43.872V37.464H153.655V34.704H155.239V31.416H158.623V34.704H161.599V37.464H158.623ZM169.919 48.216C168.639 48.216 167.487 47.936 166.463 47.376C165.439 46.8 164.631 45.992 164.039 44.952C163.463 43.912 163.175 42.712 163.175 41.352C163.175 39.992 163.471 38.792 164.063 37.752C164.671 36.712 165.495 35.912 166.535 35.352C167.575 34.776 168.735 34.488 170.015 34.488C171.295 34.488 172.455 34.776 173.495 35.352C174.535 35.912 175.351 36.712 175.943 37.752C176.551 38.792 176.855 39.992 176.855 41.352C176.855 42.712 176.543 43.912 175.919 44.952C175.311 45.992 174.479 46.8 173.423 47.376C172.383 47.936 171.215 48.216 169.919 48.216ZM169.919 45.288C170.527 45.288 171.095 45.144 171.623 44.856C172.167 44.552 172.599 44.104 172.919 43.512C173.239 42.92 173.399 42.2 173.399 41.352C173.399 40.088 173.063 39.12 172.391 38.448C171.735 37.76 170.927 37.416 169.967 37.416C169.007 37.416 168.199 37.76 167.543 38.448C166.903 39.12 166.583 40.088 166.583 41.352C166.583 42.616 166.895 43.592 167.519 44.28C168.159 44.952 168.959 45.288 169.919 45.288ZM182.68 36.768C183.112 36.064 183.672 35.512 184.36 35.112C185.064 34.712 185.864 34.512 186.76 34.512V38.04H185.872C184.816 38.04 184.016 38.288 183.472 38.784C182.944 39.28 182.68 40.144 182.68 41.376V48H179.32V34.704H182.68V36.768ZM201.383 41.064C201.383 41.544 201.351 41.976 201.287 42.36H191.567C191.647 43.32 191.983 44.072 192.575 44.616C193.167 45.16 193.895 45.432 194.759 45.432C196.007 45.432 196.895 44.896 197.423 43.824H201.047C200.663 45.104 199.927 46.16 198.839 46.992C197.751 47.808 196.415 48.216 194.831 48.216C193.551 48.216 192.399 47.936 191.375 47.376C190.367 46.8 189.575 45.992 188.999 44.952C188.439 43.912 188.159 42.712 188.159 41.352C188.159 39.976 188.439 38.768 188.999 37.728C189.559 36.688 190.343 35.888 191.351 35.328C192.359 34.768 193.519 34.488 194.831 34.488C196.095 34.488 197.223 34.76 198.215 35.304C199.223 35.848 199.999 36.624 200.543 37.632C201.103 38.624 201.383 39.768 201.383 41.064ZM197.903 40.104C197.887 39.24 197.575 38.552 196.967 38.04C196.359 37.512 195.615 37.248 194.735 37.248C193.903 37.248 193.199 37.504 192.623 38.016C192.063 38.512 191.719 39.208 191.591 40.104H197.903Z" fill="white"/>
<path d="M89.846 20.83H85.59L84.806 23H83.462L86.99 13.298H88.46L91.974 23H90.63L89.846 20.83ZM89.482 19.794L87.718 14.866L85.954 19.794H89.482ZM96.3676 21.824L98.7476 15.328H100.106L97.0956 23H95.6116L92.6016 15.328H93.9736L96.3676 21.824ZM100.883 19.136C100.883 18.352 101.042 17.666 101.359 17.078C101.677 16.4807 102.111 16.0187 102.661 15.692C103.221 15.3653 103.842 15.202 104.523 15.202C105.195 15.202 105.779 15.3467 106.273 15.636C106.768 15.9253 107.137 16.2893 107.379 16.728V15.328H108.667V23H107.379V21.572C107.127 22.02 106.749 22.3933 106.245 22.692C105.751 22.9813 105.172 23.126 104.509 23.126C103.828 23.126 103.212 22.958 102.661 22.622C102.111 22.286 101.677 21.8147 101.359 21.208C101.042 20.6013 100.883 19.9107 100.883 19.136ZM107.379 19.15C107.379 18.5713 107.263 18.0673 107.029 17.638C106.796 17.2087 106.479 16.882 106.077 16.658C105.685 16.4247 105.251 16.308 104.775 16.308C104.299 16.308 103.865 16.42 103.473 16.644C103.081 16.868 102.769 17.1947 102.535 17.624C102.302 18.0533 102.185 18.5573 102.185 19.136C102.185 19.724 102.302 20.2373 102.535 20.676C102.769 21.1053 103.081 21.4367 103.473 21.67C103.865 21.894 104.299 22.006 104.775 22.006C105.251 22.006 105.685 21.894 106.077 21.67C106.479 21.4367 106.796 21.1053 107.029 20.676C107.263 20.2373 107.379 19.7287 107.379 19.15ZM111.478 14.082C111.236 14.082 111.03 13.998 110.862 13.83C110.694 13.662 110.61 13.4567 110.61 13.214C110.61 12.9713 110.694 12.766 110.862 12.598C111.03 12.43 111.236 12.346 111.478 12.346C111.712 12.346 111.908 12.43 112.066 12.598C112.234 12.766 112.318 12.9713 112.318 13.214C112.318 13.4567 112.234 13.662 112.066 13.83C111.908 13.998 111.712 14.082 111.478 14.082ZM112.094 15.328V23H110.82V15.328H112.094ZM115.54 12.64V23H114.266V12.64H115.54ZM117.235 19.136C117.235 18.352 117.393 17.666 117.711 17.078C118.028 16.4807 118.462 16.0187 119.013 15.692C119.573 15.3653 120.193 15.202 120.875 15.202C121.547 15.202 122.13 15.3467 122.625 15.636C123.119 15.9253 123.488 16.2893 123.731 16.728V15.328H125.019V23H123.731V21.572C123.479 22.02 123.101 22.3933 122.597 22.692C122.102 22.9813 121.523 23.126 120.861 23.126C120.179 23.126 119.563 22.958 119.013 22.622C118.462 22.286 118.028 21.8147 117.711 21.208C117.393 20.6013 117.235 19.9107 117.235 19.136ZM123.731 19.15C123.731 18.5713 123.614 18.0673 123.381 17.638C123.147 17.2087 122.83 16.882 122.429 16.658C122.037 16.4247 121.603 16.308 121.127 16.308C120.651 16.308 120.217 16.42 119.825 16.644C119.433 16.868 119.12 17.1947 118.887 17.624C118.653 18.0533 118.537 18.5573 118.537 19.136C118.537 19.724 118.653 20.2373 118.887 20.676C119.12 21.1053 119.433 21.4367 119.825 21.67C120.217 21.894 120.651 22.006 121.127 22.006C121.603 22.006 122.037 21.894 122.429 21.67C122.83 21.4367 123.147 21.1053 123.381 20.676C123.614 20.2373 123.731 19.7287 123.731 19.15ZM128.446 16.756C128.707 16.2987 129.09 15.9253 129.594 15.636C130.098 15.3467 130.672 15.202 131.316 15.202C132.006 15.202 132.627 15.3653 133.178 15.692C133.728 16.0187 134.162 16.4807 134.48 17.078C134.797 17.666 134.956 18.352 134.956 19.136C134.956 19.9107 134.797 20.6013 134.48 21.208C134.162 21.8147 133.724 22.286 133.164 22.622C132.613 22.958 131.997 23.126 131.316 23.126C130.653 23.126 130.07 22.9813 129.566 22.692C129.071 22.4027 128.698 22.034 128.446 21.586V23H127.172V12.64H128.446V16.756ZM133.654 19.136C133.654 18.5573 133.537 18.0533 133.304 17.624C133.07 17.1947 132.753 16.868 132.352 16.644C131.96 16.42 131.526 16.308 131.05 16.308C130.583 16.308 130.149 16.4247 129.748 16.658C129.356 16.882 129.038 17.2133 128.796 17.652C128.562 18.0813 128.446 18.5807 128.446 19.15C128.446 19.7287 128.562 20.2373 128.796 20.676C129.038 21.1053 129.356 21.4367 129.748 21.67C130.149 21.894 130.583 22.006 131.05 22.006C131.526 22.006 131.96 21.894 132.352 21.67C132.753 21.4367 133.07 21.1053 133.304 20.676C133.537 20.2373 133.654 19.724 133.654 19.136ZM137.907 12.64V23H136.633V12.64H137.907ZM147.078 18.87C147.078 19.1127 147.064 19.3693 147.036 19.64H140.904C140.951 20.396 141.207 20.9887 141.674 21.418C142.15 21.838 142.724 22.048 143.396 22.048C143.947 22.048 144.404 21.922 144.768 21.67C145.141 21.4087 145.403 21.0633 145.552 20.634H146.924C146.719 21.3713 146.308 21.9733 145.692 22.44C145.076 22.8973 144.311 23.126 143.396 23.126C142.668 23.126 142.015 22.9627 141.436 22.636C140.867 22.3093 140.419 21.8473 140.092 21.25C139.765 20.6433 139.602 19.9433 139.602 19.15C139.602 18.3567 139.761 17.6613 140.078 17.064C140.395 16.4667 140.839 16.0093 141.408 15.692C141.987 15.3653 142.649 15.202 143.396 15.202C144.124 15.202 144.768 15.3607 145.328 15.678C145.888 15.9953 146.317 16.434 146.616 16.994C146.924 17.5447 147.078 18.17 147.078 18.87ZM145.762 18.604C145.762 18.1187 145.655 17.7033 145.44 17.358C145.225 17.0033 144.931 16.7373 144.558 16.56C144.194 16.3733 143.788 16.28 143.34 16.28C142.696 16.28 142.145 16.4853 141.688 16.896C141.24 17.3067 140.983 17.876 140.918 18.604H145.762ZM155.838 23.126C155.119 23.126 154.466 22.9627 153.878 22.636C153.299 22.3093 152.842 21.8473 152.506 21.25C152.179 20.6433 152.016 19.9433 152.016 19.15C152.016 18.366 152.184 17.6753 152.52 17.078C152.865 16.4713 153.332 16.0093 153.92 15.692C154.508 15.3653 155.166 15.202 155.894 15.202C156.622 15.202 157.28 15.3653 157.868 15.692C158.456 16.0093 158.918 16.4667 159.254 17.064C159.599 17.6613 159.772 18.3567 159.772 19.15C159.772 19.9433 159.595 20.6433 159.24 21.25C158.895 21.8473 158.423 22.3093 157.826 22.636C157.229 22.9627 156.566 23.126 155.838 23.126ZM155.838 22.006C156.295 22.006 156.725 21.8987 157.126 21.684C157.527 21.4693 157.849 21.1473 158.092 20.718C158.344 20.2887 158.47 19.766 158.47 19.15C158.47 18.534 158.349 18.0113 158.106 17.582C157.863 17.1527 157.546 16.8353 157.154 16.63C156.762 16.4153 156.337 16.308 155.88 16.308C155.413 16.308 154.984 16.4153 154.592 16.63C154.209 16.8353 153.901 17.1527 153.668 17.582C153.435 18.0113 153.318 18.534 153.318 19.15C153.318 19.7753 153.43 20.3027 153.654 20.732C153.887 21.1613 154.195 21.4833 154.578 21.698C154.961 21.9033 155.381 22.006 155.838 22.006ZM165.185 15.188C166.118 15.188 166.874 15.4727 167.453 16.042C168.032 16.602 168.321 17.414 168.321 18.478V23H167.061V18.66C167.061 17.8947 166.87 17.3113 166.487 16.91C166.104 16.4993 165.582 16.294 164.919 16.294C164.247 16.294 163.71 16.504 163.309 16.924C162.917 17.344 162.721 17.9553 162.721 18.758V23H161.447V15.328H162.721V16.42C162.973 16.028 163.314 15.7247 163.743 15.51C164.182 15.2953 164.662 15.188 165.185 15.188ZM175.689 16.378V20.9C175.689 21.2733 175.768 21.5393 175.927 21.698C176.085 21.8473 176.361 21.922 176.753 21.922H177.691V23H176.543C175.833 23 175.301 22.8367 174.947 22.51C174.592 22.1833 174.415 21.6467 174.415 20.9V16.378H173.421V15.328H174.415V13.396H175.689V15.328H177.691V16.378H175.689ZM183.042 15.188C183.621 15.188 184.144 15.314 184.61 15.566C185.077 15.8087 185.441 16.1773 185.702 16.672C185.973 17.1667 186.108 17.7687 186.108 18.478V23H184.848V18.66C184.848 17.8947 184.657 17.3113 184.274 16.91C183.892 16.4993 183.369 16.294 182.706 16.294C182.034 16.294 181.498 16.504 181.096 16.924C180.704 17.344 180.508 17.9553 180.508 18.758V23H179.234V12.64H180.508V16.42C180.76 16.028 181.106 15.7247 181.544 15.51C181.992 15.2953 182.492 15.188 183.042 15.188ZM195.189 18.87C195.189 19.1127 195.175 19.3693 195.147 19.64H189.015C189.062 20.396 189.319 20.9887 189.785 21.418C190.261 21.838 190.835 22.048 191.507 22.048C192.058 22.048 192.515 21.922 192.879 21.67C193.253 21.4087 193.514 21.0633 193.663 20.634H195.035C194.83 21.3713 194.419 21.9733 193.803 22.44C193.187 22.8973 192.422 23.126 191.507 23.126C190.779 23.126 190.126 22.9627 189.547 22.636C188.978 22.3093 188.53 21.8473 188.203 21.25C187.877 20.6433 187.713 19.9433 187.713 19.15C187.713 18.3567 187.872 17.6613 188.189 17.064C188.507 16.4667 188.95 16.0093 189.519 15.692C190.098 15.3653 190.761 15.202 191.507 15.202C192.235 15.202 192.879 15.3607 193.439 15.678C193.999 15.9953 194.429 16.434 194.727 16.994C195.035 17.5447 195.189 18.17 195.189 18.87ZM193.873 18.604C193.873 18.1187 193.766 17.7033 193.551 17.358C193.337 17.0033 193.043 16.7373 192.669 16.56C192.305 16.3733 191.899 16.28 191.451 16.28C190.807 16.28 190.257 16.4853 189.799 16.896C189.351 17.3067 189.095 17.876 189.029 18.604H193.873Z" fill="white"/>
<path d="M54.7536 32.4711C54.7353 29.2959 56.1499 26.9029 59.0066 25.1384C57.4089 22.8105 54.9917 21.5302 51.8054 21.2834C48.7886 21.0413 45.4878 23.0712 44.2793 23.0712C43.002 23.0712 40.0813 21.3672 37.7831 21.3672C33.0403 21.4417 28 25.2128 28 32.8854C28 35.1527 28.4074 37.4946 29.2223 39.9062C30.3119 43.0814 34.2398 50.861 38.3371 50.7353C40.4795 50.6841 41.9948 49.1897 44.7828 49.1897C47.4884 49.1897 48.8893 50.7353 51.279 50.7353C55.4129 50.6748 58.9654 43.6028 60 40.4183C54.4561 37.7599 54.7536 32.634 54.7536 32.4711ZM49.9422 18.2712C52.2632 15.4685 52.0526 12.9172 51.984 12C49.933 12.121 47.5617 13.42 46.2112 15.0169C44.7233 16.7302 43.8489 18.8485 44.0366 21.2369C46.2524 21.4091 48.2758 20.2499 49.9422 18.2712Z" fill="white"/>
</svg>
