<svg width="240" height="64" viewBox="0 0 240 64" fill="none" xmlns="http://www.w3.org/2000/svg">
<rect width="240" height="64" rx="4" fill="black"/>
<path d="M95.1 38.24C94.78 37.6533 94.34 37.2067 93.78 36.9C93.22 36.5933 92.5667 36.44 91.82 36.44C90.9933 36.44 90.26 36.6267 89.62 37C88.98 37.3733 88.48 37.9067 88.12 38.6C87.76 39.2933 87.58 40.0933 87.58 41C87.58 41.9333 87.76 42.7467 88.12 43.44C88.4933 44.1333 89.0067 44.6667 89.66 45.04C90.3133 45.4133 91.0733 45.6 91.94 45.6C93.0067 45.6 93.88 45.32 94.56 44.76C95.24 44.1867 95.6867 43.3933 95.9 42.38H91.1V40.24H98.66V42.68C98.4733 43.6533 98.0733 44.5533 97.46 45.38C96.8467 46.2067 96.0533 46.8733 95.08 47.38C94.12 47.8733 93.04 48.12 91.84 48.12C90.4933 48.12 89.2733 47.82 88.18 47.22C87.1 46.6067 86.2467 45.76 85.62 44.68C85.0067 43.6 84.7 42.3733 84.7 41C84.7 39.6267 85.0067 38.4 85.62 37.32C86.2467 36.2267 87.1 35.38 88.18 34.78C89.2733 34.1667 90.4867 33.86 91.82 33.86C93.3933 33.86 94.76 34.2467 95.92 35.02C97.08 35.78 97.88 36.8533 98.32 38.24H95.1ZM105.652 48.18C104.585 48.18 103.625 47.9467 102.772 47.48C101.918 47 101.245 46.3267 100.752 45.46C100.272 44.5933 100.032 43.5933 100.032 42.46C100.032 41.3267 100.278 40.3267 100.772 39.46C101.278 38.5933 101.965 37.9267 102.832 37.46C103.698 36.98 104.665 36.74 105.732 36.74C106.798 36.74 107.765 36.98 108.632 37.46C109.498 37.9267 110.178 38.5933 110.672 39.46C111.178 40.3267 111.432 41.3267 111.432 42.46C111.432 43.5933 111.172 44.5933 110.652 45.46C110.145 46.3267 109.452 47 108.572 47.48C107.705 47.9467 106.732 48.18 105.652 48.18ZM105.652 45.74C106.158 45.74 106.632 45.62 107.072 45.38C107.525 45.1267 107.885 44.7533 108.152 44.26C108.418 43.7667 108.552 43.1667 108.552 42.46C108.552 41.4067 108.272 40.6 107.712 40.04C107.165 39.4667 106.492 39.18 105.692 39.18C104.892 39.18 104.218 39.4667 103.672 40.04C103.138 40.6 102.872 41.4067 102.872 42.46C102.872 43.5133 103.132 44.3267 103.652 44.9C104.185 45.46 104.852 45.74 105.652 45.74ZM118.405 48.18C117.339 48.18 116.379 47.9467 115.525 47.48C114.672 47 113.999 46.3267 113.505 45.46C113.025 44.5933 112.785 43.5933 112.785 42.46C112.785 41.3267 113.032 40.3267 113.525 39.46C114.032 38.5933 114.719 37.9267 115.585 37.46C116.452 36.98 117.419 36.74 118.485 36.74C119.552 36.74 120.519 36.98 121.385 37.46C122.252 37.9267 122.932 38.5933 123.425 39.46C123.932 40.3267 124.185 41.3267 124.185 42.46C124.185 43.5933 123.925 44.5933 123.405 45.46C122.899 46.3267 122.205 47 121.325 47.48C120.459 47.9467 119.485 48.18 118.405 48.18ZM118.405 45.74C118.912 45.74 119.385 45.62 119.825 45.38C120.279 45.1267 120.639 44.7533 120.905 44.26C121.172 43.7667 121.305 43.1667 121.305 42.46C121.305 41.4067 121.025 40.6 120.465 40.04C119.919 39.4667 119.245 39.18 118.445 39.18C117.645 39.18 116.972 39.4667 116.425 40.04C115.892 40.6 115.625 41.4067 115.625 42.46C115.625 43.5133 115.885 44.3267 116.405 44.9C116.939 45.46 117.605 45.74 118.405 45.74ZM130.579 36.74C131.406 36.74 132.133 36.9067 132.759 37.24C133.386 37.56 133.879 37.98 134.239 38.5V36.92H137.059V48.08C137.059 49.1067 136.853 50.02 136.439 50.82C136.026 51.6333 135.406 52.2733 134.579 52.74C133.753 53.22 132.753 53.46 131.579 53.46C130.006 53.46 128.713 53.0933 127.699 52.36C126.699 51.6267 126.133 50.6267 125.999 49.36H128.779C128.926 49.8667 129.239 50.2667 129.719 50.56C130.213 50.8667 130.806 51.02 131.499 51.02C132.313 51.02 132.973 50.7733 133.479 50.28C133.986 49.8 134.239 49.0667 134.239 48.08V46.36C133.879 46.88 133.379 47.3133 132.739 47.66C132.113 48.0067 131.393 48.18 130.579 48.18C129.646 48.18 128.793 47.94 128.019 47.46C127.246 46.98 126.633 46.3067 126.179 45.44C125.739 44.56 125.519 43.5533 125.519 42.42C125.519 41.3 125.739 40.3067 126.179 39.44C126.633 38.5733 127.239 37.9067 127.999 37.44C128.773 36.9733 129.633 36.74 130.579 36.74ZM134.239 42.46C134.239 41.78 134.106 41.2 133.839 40.72C133.573 40.2267 133.213 39.8533 132.759 39.6C132.306 39.3333 131.819 39.2 131.299 39.2C130.779 39.2 130.299 39.3267 129.859 39.58C129.419 39.8333 129.059 40.2067 128.779 40.7C128.513 41.18 128.379 41.7533 128.379 42.42C128.379 43.0867 128.513 43.6733 128.779 44.18C129.059 44.6733 129.419 45.0533 129.859 45.32C130.313 45.5867 130.793 45.72 131.299 45.72C131.819 45.72 132.306 45.5933 132.759 45.34C133.213 45.0733 133.573 44.7 133.839 44.22C134.106 43.7267 134.239 43.14 134.239 42.46ZM142.594 33.2V48H139.794V33.2H142.594ZM155.66 42.22C155.66 42.62 155.634 42.98 155.58 43.3H147.48C147.547 44.1 147.827 44.7267 148.32 45.18C148.814 45.6333 149.42 45.86 150.14 45.86C151.18 45.86 151.92 45.4133 152.36 44.52H155.38C155.06 45.5867 154.447 46.4667 153.54 47.16C152.634 47.84 151.52 48.18 150.2 48.18C149.134 48.18 148.174 47.9467 147.32 47.48C146.48 47 145.82 46.3267 145.34 45.46C144.874 44.5933 144.64 43.5933 144.64 42.46C144.64 41.3133 144.874 40.3067 145.34 39.44C145.807 38.5733 146.46 37.9067 147.3 37.44C148.14 36.9733 149.107 36.74 150.2 36.74C151.254 36.74 152.194 36.9667 153.02 37.42C153.86 37.8733 154.507 38.52 154.96 39.36C155.427 40.1867 155.66 41.14 155.66 42.22ZM152.76 41.42C152.747 40.7 152.487 40.1267 151.98 39.7C151.474 39.26 150.854 39.04 150.12 39.04C149.427 39.04 148.84 39.2533 148.36 39.68C147.894 40.0933 147.607 40.6733 147.5 41.42H152.76ZM172.65 38.36C172.65 39.1067 172.47 39.8067 172.11 40.46C171.763 41.1133 171.21 41.64 170.45 42.04C169.703 42.44 168.757 42.64 167.61 42.64H165.27V48H162.47V34.04H167.61C168.69 34.04 169.61 34.2267 170.37 34.6C171.13 34.9733 171.697 35.4867 172.07 36.14C172.457 36.7933 172.65 37.5333 172.65 38.36ZM167.49 40.38C168.263 40.38 168.837 40.2067 169.21 39.86C169.583 39.5 169.77 39 169.77 38.36C169.77 37 169.01 36.32 167.49 36.32H165.27V40.38H167.49ZM177.438 33.2V48H174.638V33.2H177.438ZM179.484 42.42C179.484 41.3 179.704 40.3067 180.144 39.44C180.598 38.5733 181.204 37.9067 181.964 37.44C182.738 36.9733 183.598 36.74 184.544 36.74C185.371 36.74 186.091 36.9067 186.704 37.24C187.331 37.5733 187.831 37.9933 188.204 38.5V36.92H191.024V48H188.204V46.38C187.844 46.9 187.344 47.3333 186.704 47.68C186.078 48.0133 185.351 48.18 184.524 48.18C183.591 48.18 182.738 47.94 181.964 47.46C181.204 46.98 180.598 46.3067 180.144 45.44C179.704 44.56 179.484 43.5533 179.484 42.42ZM188.204 42.46C188.204 41.78 188.071 41.2 187.804 40.72C187.538 40.2267 187.178 39.8533 186.724 39.6C186.271 39.3333 185.784 39.2 185.264 39.2C184.744 39.2 184.264 39.3267 183.824 39.58C183.384 39.8333 183.024 40.2067 182.744 40.7C182.478 41.18 182.344 41.7533 182.344 42.42C182.344 43.0867 182.478 43.6733 182.744 44.18C183.024 44.6733 183.384 45.0533 183.824 45.32C184.278 45.5867 184.758 45.72 185.264 45.72C185.784 45.72 186.271 45.5933 186.724 45.34C187.178 45.0733 187.538 44.7 187.804 44.22C188.071 43.7267 188.204 43.14 188.204 42.46ZM204.359 36.92L197.499 53.24H194.519L196.919 47.72L192.479 36.92H195.619L198.479 44.66L201.379 36.92H204.359Z" fill="white"/>
<path d="M92.47 17.07C92.1993 16.5007 91.8073 16.062 91.294 15.754C90.7807 15.4367 90.1833 15.278 89.502 15.278C88.8207 15.278 88.2047 15.4367 87.654 15.754C87.1127 16.062 86.6833 16.51 86.366 17.098C86.058 17.6767 85.904 18.3487 85.904 19.114C85.904 19.8793 86.058 20.5513 86.366 21.13C86.6833 21.7087 87.1127 22.1567 87.654 22.474C88.2047 22.782 88.8207 22.936 89.502 22.936C90.454 22.936 91.238 22.6513 91.854 22.082C92.47 21.5127 92.8293 20.7427 92.932 19.772H89.04V18.736H94.29V19.716C94.2153 20.5187 93.9633 21.256 93.534 21.928C93.1047 22.5907 92.54 23.118 91.84 23.51C91.14 23.8927 90.3607 24.084 89.502 24.084C88.5967 24.084 87.7707 23.874 87.024 23.454C86.2773 23.0247 85.6847 22.432 85.246 21.676C84.8167 20.92 84.602 20.066 84.602 19.114C84.602 18.162 84.8167 17.308 85.246 16.552C85.6847 15.7867 86.2773 15.194 87.024 14.774C87.7707 14.3447 88.5967 14.13 89.502 14.13C90.538 14.13 91.4527 14.3867 92.246 14.9C93.0487 15.4133 93.632 16.1367 93.996 17.07H92.47ZM97.2485 15.278V18.54H100.804V19.59H97.2485V22.95H101.224V24H95.9745V14.228H101.224V15.278H97.2485ZM109.158 14.242V15.278H106.498V24H105.224V15.278H102.55V14.242H109.158ZM115.733 14.242V24H114.459V14.242H115.733ZM123.91 14.242V15.278H121.25V24H119.976V15.278H117.302V14.242H123.91ZM133.635 24.098C132.729 24.098 131.903 23.888 131.157 23.468C130.41 23.0387 129.817 22.446 129.379 21.69C128.949 20.9247 128.735 20.066 128.735 19.114C128.735 18.162 128.949 17.308 129.379 16.552C129.817 15.7867 130.41 15.194 131.157 14.774C131.903 14.3447 132.729 14.13 133.635 14.13C134.549 14.13 135.38 14.3447 136.127 14.774C136.873 15.194 137.461 15.782 137.891 16.538C138.32 17.294 138.535 18.1527 138.535 19.114C138.535 20.0753 138.32 20.934 137.891 21.69C137.461 22.446 136.873 23.0387 136.127 23.468C135.38 23.888 134.549 24.098 133.635 24.098ZM133.635 22.992C134.316 22.992 134.927 22.8333 135.469 22.516C136.019 22.1987 136.449 21.746 136.757 21.158C137.074 20.57 137.233 19.8887 137.233 19.114C137.233 18.33 137.074 17.6487 136.757 17.07C136.449 16.482 136.024 16.0293 135.483 15.712C134.941 15.3947 134.325 15.236 133.635 15.236C132.944 15.236 132.328 15.3947 131.787 15.712C131.245 16.0293 130.816 16.482 130.499 17.07C130.191 17.6487 130.037 18.33 130.037 19.114C130.037 19.8887 130.191 20.57 130.499 21.158C130.816 21.746 131.245 22.1987 131.787 22.516C132.337 22.8333 132.953 22.992 133.635 22.992ZM147.889 24H146.615L141.491 16.23V24H140.217V14.228H141.491L146.615 21.984V14.228H147.889V24Z" fill="white"/>
<path d="M34.617 15.024C35.2788 14.938 35.9499 15.0848 36.5155 15.4392L55.7968 26.4L50.9172 31.339L34.617 15.024ZM33.1338 16.5071C33.0408 16.83 32.9958 17.1649 33.0003 17.5009V48.1435C32.9958 48.4795 33.0408 48.8143 33.1338 49.1372L49.4488 32.8222L33.1338 16.5071ZM50.932 34.3053L34.617 50.6204C35.2791 50.7141 35.9529 50.5667 36.5155 50.2051L55.7968 39.2443L50.932 34.3053ZM63.5687 30.8347L57.725 27.5124L52.3855 32.8222L57.7101 38.1468L63.5539 34.8245C65.482 33.7269 65.482 31.9174 63.5539 30.8199L63.5687 30.8347Z" fill="white"/>
</svg>
