<svg width="240" height="68" viewBox="0 0 240 68" fill="none" xmlns="http://www.w3.org/2000/svg">
<g clip-path="url(#clip0)">
<rect width="240" height="72" fill="white"/>
<path d="M95.1 40.24C94.78 39.6533 94.34 39.2067 93.78 38.9C93.22 38.5933 92.5667 38.44 91.82 38.44C90.9933 38.44 90.26 38.6267 89.62 39C88.98 39.3733 88.48 39.9067 88.12 40.6C87.76 41.2933 87.58 42.0933 87.58 43C87.58 43.9333 87.76 44.7467 88.12 45.44C88.4933 46.1333 89.0067 46.6667 89.66 47.04C90.3133 47.4133 91.0733 47.6 91.94 47.6C93.0067 47.6 93.88 47.32 94.56 46.76C95.24 46.1867 95.6867 45.3933 95.9 44.38H91.1V42.24H98.66V44.68C98.4733 45.6533 98.0733 46.5533 97.46 47.38C96.8467 48.2067 96.0533 48.8733 95.08 49.38C94.12 49.8733 93.04 50.12 91.84 50.12C90.4933 50.12 89.2733 49.82 88.18 49.22C87.1 48.6067 86.2467 47.76 85.62 46.68C85.0067 45.6 84.7 44.3733 84.7 43C84.7 41.6267 85.0067 40.4 85.62 39.32C86.2467 38.2267 87.1 37.38 88.18 36.78C89.2733 36.1667 90.4867 35.86 91.82 35.86C93.3933 35.86 94.76 36.2467 95.92 37.02C97.08 37.78 97.88 38.8533 98.32 40.24H95.1ZM105.652 50.18C104.585 50.18 103.625 49.9467 102.772 49.48C101.918 49 101.245 48.3267 100.752 47.46C100.272 46.5933 100.032 45.5933 100.032 44.46C100.032 43.3267 100.278 42.3267 100.772 41.46C101.278 40.5933 101.965 39.9267 102.832 39.46C103.698 38.98 104.665 38.74 105.732 38.74C106.798 38.74 107.765 38.98 108.632 39.46C109.498 39.9267 110.178 40.5933 110.672 41.46C111.178 42.3267 111.432 43.3267 111.432 44.46C111.432 45.5933 111.172 46.5933 110.652 47.46C110.145 48.3267 109.452 49 108.572 49.48C107.705 49.9467 106.732 50.18 105.652 50.18ZM105.652 47.74C106.158 47.74 106.632 47.62 107.072 47.38C107.525 47.1267 107.885 46.7533 108.152 46.26C108.418 45.7667 108.552 45.1667 108.552 44.46C108.552 43.4067 108.272 42.6 107.712 42.04C107.165 41.4667 106.492 41.18 105.692 41.18C104.892 41.18 104.218 41.4667 103.672 42.04C103.138 42.6 102.872 43.4067 102.872 44.46C102.872 45.5133 103.132 46.3267 103.652 46.9C104.185 47.46 104.852 47.74 105.652 47.74ZM118.405 50.18C117.339 50.18 116.379 49.9467 115.525 49.48C114.672 49 113.999 48.3267 113.505 47.46C113.025 46.5933 112.785 45.5933 112.785 44.46C112.785 43.3267 113.032 42.3267 113.525 41.46C114.032 40.5933 114.719 39.9267 115.585 39.46C116.452 38.98 117.419 38.74 118.485 38.74C119.552 38.74 120.519 38.98 121.385 39.46C122.252 39.9267 122.932 40.5933 123.425 41.46C123.932 42.3267 124.185 43.3267 124.185 44.46C124.185 45.5933 123.925 46.5933 123.405 47.46C122.899 48.3267 122.205 49 121.325 49.48C120.459 49.9467 119.485 50.18 118.405 50.18ZM118.405 47.74C118.912 47.74 119.385 47.62 119.825 47.38C120.279 47.1267 120.639 46.7533 120.905 46.26C121.172 45.7667 121.305 45.1667 121.305 44.46C121.305 43.4067 121.025 42.6 120.465 42.04C119.919 41.4667 119.245 41.18 118.445 41.18C117.645 41.18 116.972 41.4667 116.425 42.04C115.892 42.6 115.625 43.4067 115.625 44.46C115.625 45.5133 115.885 46.3267 116.405 46.9C116.939 47.46 117.605 47.74 118.405 47.74ZM130.579 38.74C131.406 38.74 132.133 38.9067 132.759 39.24C133.386 39.56 133.879 39.98 134.239 40.5V38.92H137.059V50.08C137.059 51.1067 136.853 52.02 136.439 52.82C136.026 53.6333 135.406 54.2733 134.579 54.74C133.753 55.22 132.753 55.46 131.579 55.46C130.006 55.46 128.713 55.0933 127.699 54.36C126.699 53.6267 126.133 52.6267 125.999 51.36H128.779C128.926 51.8667 129.239 52.2667 129.719 52.56C130.213 52.8667 130.806 53.02 131.499 53.02C132.313 53.02 132.973 52.7733 133.479 52.28C133.986 51.8 134.239 51.0667 134.239 50.08V48.36C133.879 48.88 133.379 49.3133 132.739 49.66C132.113 50.0067 131.393 50.18 130.579 50.18C129.646 50.18 128.793 49.94 128.019 49.46C127.246 48.98 126.633 48.3067 126.179 47.44C125.739 46.56 125.519 45.5533 125.519 44.42C125.519 43.3 125.739 42.3067 126.179 41.44C126.633 40.5733 127.239 39.9067 127.999 39.44C128.773 38.9733 129.633 38.74 130.579 38.74ZM134.239 44.46C134.239 43.78 134.106 43.2 133.839 42.72C133.573 42.2267 133.213 41.8533 132.759 41.6C132.306 41.3333 131.819 41.2 131.299 41.2C130.779 41.2 130.299 41.3267 129.859 41.58C129.419 41.8333 129.059 42.2067 128.779 42.7C128.513 43.18 128.379 43.7533 128.379 44.42C128.379 45.0867 128.513 45.6733 128.779 46.18C129.059 46.6733 129.419 47.0533 129.859 47.32C130.313 47.5867 130.793 47.72 131.299 47.72C131.819 47.72 132.306 47.5933 132.759 47.34C133.213 47.0733 133.573 46.7 133.839 46.22C134.106 45.7267 134.239 45.14 134.239 44.46ZM142.594 35.2V50H139.794V35.2H142.594ZM155.66 44.22C155.66 44.62 155.634 44.98 155.58 45.3H147.48C147.547 46.1 147.827 46.7267 148.32 47.18C148.814 47.6333 149.42 47.86 150.14 47.86C151.18 47.86 151.92 47.4133 152.36 46.52H155.38C155.06 47.5867 154.447 48.4667 153.54 49.16C152.634 49.84 151.52 50.18 150.2 50.18C149.134 50.18 148.174 49.9467 147.32 49.48C146.48 49 145.82 48.3267 145.34 47.46C144.874 46.5933 144.64 45.5933 144.64 44.46C144.64 43.3133 144.874 42.3067 145.34 41.44C145.807 40.5733 146.46 39.9067 147.3 39.44C148.14 38.9733 149.107 38.74 150.2 38.74C151.254 38.74 152.194 38.9667 153.02 39.42C153.86 39.8733 154.507 40.52 154.96 41.36C155.427 42.1867 155.66 43.14 155.66 44.22ZM152.76 43.42C152.747 42.7 152.487 42.1267 151.98 41.7C151.474 41.26 150.854 41.04 150.12 41.04C149.427 41.04 148.84 41.2533 148.36 41.68C147.894 42.0933 147.607 42.6733 147.5 43.42H152.76ZM172.65 40.36C172.65 41.1067 172.47 41.8067 172.11 42.46C171.763 43.1133 171.21 43.64 170.45 44.04C169.703 44.44 168.757 44.64 167.61 44.64H165.27V50H162.47V36.04H167.61C168.69 36.04 169.61 36.2267 170.37 36.6C171.13 36.9733 171.697 37.4867 172.07 38.14C172.457 38.7933 172.65 39.5333 172.65 40.36ZM167.49 42.38C168.263 42.38 168.837 42.2067 169.21 41.86C169.583 41.5 169.77 41 169.77 40.36C169.77 39 169.01 38.32 167.49 38.32H165.27V42.38H167.49ZM177.438 35.2V50H174.638V35.2H177.438ZM179.484 44.42C179.484 43.3 179.704 42.3067 180.144 41.44C180.598 40.5733 181.204 39.9067 181.964 39.44C182.738 38.9733 183.598 38.74 184.544 38.74C185.371 38.74 186.091 38.9067 186.704 39.24C187.331 39.5733 187.831 39.9933 188.204 40.5V38.92H191.024V50H188.204V48.38C187.844 48.9 187.344 49.3333 186.704 49.68C186.078 50.0133 185.351 50.18 184.524 50.18C183.591 50.18 182.738 49.94 181.964 49.46C181.204 48.98 180.598 48.3067 180.144 47.44C179.704 46.56 179.484 45.5533 179.484 44.42ZM188.204 44.46C188.204 43.78 188.071 43.2 187.804 42.72C187.538 42.2267 187.178 41.8533 186.724 41.6C186.271 41.3333 185.784 41.2 185.264 41.2C184.744 41.2 184.264 41.3267 183.824 41.58C183.384 41.8333 183.024 42.2067 182.744 42.7C182.478 43.18 182.344 43.7533 182.344 44.42C182.344 45.0867 182.478 45.6733 182.744 46.18C183.024 46.6733 183.384 47.0533 183.824 47.32C184.278 47.5867 184.758 47.72 185.264 47.72C185.784 47.72 186.271 47.5933 186.724 47.34C187.178 47.0733 187.538 46.7 187.804 46.22C188.071 45.7267 188.204 45.14 188.204 44.46ZM204.359 38.92L197.499 55.24H194.519L196.919 49.72L192.479 38.92H195.619L198.479 46.66L201.379 38.92H204.359Z" fill="black"/>
<path d="M92.47 17.07C92.1993 16.5007 91.8073 16.062 91.294 15.754C90.7807 15.4367 90.1833 15.278 89.502 15.278C88.8207 15.278 88.2047 15.4367 87.654 15.754C87.1127 16.062 86.6833 16.51 86.366 17.098C86.058 17.6767 85.904 18.3487 85.904 19.114C85.904 19.8793 86.058 20.5513 86.366 21.13C86.6833 21.7087 87.1127 22.1567 87.654 22.474C88.2047 22.782 88.8207 22.936 89.502 22.936C90.454 22.936 91.238 22.6513 91.854 22.082C92.47 21.5127 92.8293 20.7427 92.932 19.772H89.04V18.736H94.29V19.716C94.2153 20.5187 93.9633 21.256 93.534 21.928C93.1047 22.5907 92.54 23.118 91.84 23.51C91.14 23.8927 90.3607 24.084 89.502 24.084C88.5967 24.084 87.7707 23.874 87.024 23.454C86.2773 23.0247 85.6847 22.432 85.246 21.676C84.8167 20.92 84.602 20.066 84.602 19.114C84.602 18.162 84.8167 17.308 85.246 16.552C85.6847 15.7867 86.2773 15.194 87.024 14.774C87.7707 14.3447 88.5967 14.13 89.502 14.13C90.538 14.13 91.4527 14.3867 92.246 14.9C93.0487 15.4133 93.632 16.1367 93.996 17.07H92.47ZM97.2485 15.278V18.54H100.804V19.59H97.2485V22.95H101.224V24H95.9745V14.228H101.224V15.278H97.2485ZM109.158 14.242V15.278H106.498V24H105.224V15.278H102.55V14.242H109.158ZM115.733 14.242V24H114.459V14.242H115.733ZM123.91 14.242V15.278H121.25V24H119.976V15.278H117.302V14.242H123.91ZM133.635 24.098C132.729 24.098 131.903 23.888 131.157 23.468C130.41 23.0387 129.817 22.446 129.379 21.69C128.949 20.9247 128.735 20.066 128.735 19.114C128.735 18.162 128.949 17.308 129.379 16.552C129.817 15.7867 130.41 15.194 131.157 14.774C131.903 14.3447 132.729 14.13 133.635 14.13C134.549 14.13 135.38 14.3447 136.127 14.774C136.873 15.194 137.461 15.782 137.891 16.538C138.32 17.294 138.535 18.1527 138.535 19.114C138.535 20.0753 138.32 20.934 137.891 21.69C137.461 22.446 136.873 23.0387 136.127 23.468C135.38 23.888 134.549 24.098 133.635 24.098ZM133.635 22.992C134.316 22.992 134.927 22.8333 135.469 22.516C136.019 22.1987 136.449 21.746 136.757 21.158C137.074 20.57 137.233 19.8887 137.233 19.114C137.233 18.33 137.074 17.6487 136.757 17.07C136.449 16.482 136.024 16.0293 135.483 15.712C134.941 15.3947 134.325 15.236 133.635 15.236C132.944 15.236 132.328 15.3947 131.787 15.712C131.245 16.0293 130.816 16.482 130.499 17.07C130.191 17.6487 130.037 18.33 130.037 19.114C130.037 19.8887 130.191 20.57 130.499 21.158C130.816 21.746 131.245 22.1987 131.787 22.516C132.337 22.8333 132.953 22.992 133.635 22.992ZM147.889 24H146.615L141.491 16.23V24H140.217V14.228H141.491L146.615 21.984V14.228H147.889V24Z" fill="black"/>
<path d="M34.8696 14.0277C35.6349 13.9283 36.4109 14.0981 37.0647 14.5079L59.3589 27.1812L53.7167 32.8919L34.8696 14.0277ZM33.1547 15.7426C33.0472 16.116 32.9952 16.5031 33.0004 16.8916V52.3221C32.9952 52.7106 33.0472 53.0978 33.1547 53.4711L52.0189 34.6069L33.1547 15.7426ZM53.7339 36.3218L34.8696 55.1861C35.6352 55.2944 36.4143 55.124 37.0647 54.7059L59.3589 42.0325L53.7339 36.3218ZM68.3451 32.3089L61.5883 28.4674L55.4145 34.6069L61.5711 40.7635L68.3279 36.922C70.5574 35.653 70.5574 33.5608 68.3279 32.2917L68.3451 32.3089Z" fill="black"/>
</g>
<defs>
<clipPath id="clip0">
<rect width="240" height="68" fill="white"/>
</clipPath>
</defs>
</svg>
