<svg id="IG" xmlns="http://www.w3.org/2000/svg" width="16" height="16" viewBox="0 0 16 16">
  <path id="Icon" d="M8,16c-2.176,0-2.458-.009-3.3-.049a5.9,5.9,0,0,1-1.942-.372,3.915,3.915,0,0,1-1.417-.922A3.911,3.911,0,0,1,.42,13.24,5.928,5.928,0,0,1,.048,11.3C.009,10.45,0,10.168,0,8S.009,5.55.048,4.7A5.94,5.94,0,0,1,.42,2.759a3.915,3.915,0,0,1,.923-1.417A3.915,3.915,0,0,1,2.759.42,5.94,5.94,0,0,1,4.7.048C5.55.009,5.832,0,8,0s2.45.009,3.3.048A5.928,5.928,0,0,1,13.24.42a3.911,3.911,0,0,1,1.417.923,3.915,3.915,0,0,1,.922,1.417A5.9,5.9,0,0,1,15.952,4.7C15.991,5.542,16,5.824,16,8s-.009,2.458-.049,3.3a5.885,5.885,0,0,1-.372,1.941,4.086,4.086,0,0,1-2.34,2.34,5.885,5.885,0,0,1-1.941.372C10.458,15.991,10.176,16,8,16ZM8,1.442c-2.132,0-2.386.008-3.233.046a4.453,4.453,0,0,0-1.486.275,2.491,2.491,0,0,0-.92.6,2.491,2.491,0,0,0-.6.92,4.453,4.453,0,0,0-.275,1.486c-.038.847-.046,1.1-.046,3.233s.008,2.385.046,3.233a4.472,4.472,0,0,0,.275,1.485,2.483,2.483,0,0,0,.6.92,2.475,2.475,0,0,0,.92.6,4.42,4.42,0,0,0,1.486.275c.84.039,1.092.047,3.233.047s2.393-.008,3.233-.047a4.4,4.4,0,0,0,1.485-.275,2.65,2.65,0,0,0,1.518-1.518,4.4,4.4,0,0,0,.275-1.485c.039-.841.047-1.093.047-3.233s-.008-2.393-.047-3.233a4.42,4.42,0,0,0-.275-1.486,2.475,2.475,0,0,0-.6-.92,2.483,2.483,0,0,0-.92-.6,4.472,4.472,0,0,0-1.485-.275C10.385,1.45,10.131,1.442,8,1.442ZM8,12.108A4.108,4.108,0,1,1,12.108,8,4.113,4.113,0,0,1,8,12.108ZM8,5.333A2.667,2.667,0,1,0,10.667,8,2.67,2.67,0,0,0,8,5.333Zm4.271-.644a.96.96,0,1,1,.959-.96A.961.961,0,0,1,12.271,4.69Z" fill="#1f1844"/>
</svg>
