<svg width="1028" height="1028" viewBox="0 0 1028 1028" fill="none" xmlns="http://www.w3.org/2000/svg">
<rect width="1028" height="1028" rx="80" fill="#242527"/>
<path fill-rule="evenodd" clip-rule="evenodd" d="M773.442 704.42C714.734 784.217 620.164 836 513.5 836C410.135 836 318.127 787.371 259.108 711.743C265.59 713.892 272.153 715.798 278.75 717.466C344.32 734.042 423.707 730.442 491.992 701.347C544.078 679.154 581.277 654.618 610.791 635.15C617.983 630.406 624.718 625.963 631.101 621.929C663.276 601.593 686.968 590.956 722.885 593.324C759.229 595.719 777.557 611.568 784.996 628.575C792.926 646.704 791.925 673.97 773.384 704.385L773.442 704.42ZM828.266 584.023C806.916 554.504 771.271 536.383 726.831 533.454C672.443 529.869 635.679 548.056 599.045 571.21C591.476 575.994 583.943 580.953 576.224 586.036L576.222 586.037C546.994 605.282 515.094 626.284 468.473 646.149C413.047 669.765 347.155 672.871 293.456 659.296C238.142 645.312 205.724 616.913 199.373 586.336L199.264 586.359C193.857 562.945 191 538.556 191 513.5C191 335.388 335.388 191 513.5 191C691.612 191 836 335.388 836 513.5C836 537.724 833.329 561.325 828.266 584.023ZM896 513.5C896 724.749 724.749 896 513.5 896C302.251 896 131 724.749 131 513.5C131 302.251 302.251 131 513.5 131C724.749 131 896 302.251 896 513.5Z" fill="#FDC591"/>
</svg>
