<svg width="156" height="40" viewBox="0 0 156 40" fill="none" xmlns="http://www.w3.org/2000/svg">
<rect width="156" height="40" rx="5" fill="white"/>
<path d="M46.5399 29.6477V20.5076H46.4794L42.7362 29.553H41.3075L37.5546 20.5076H37.495V29.6477H35.7391V17.2292H37.9686L41.9872 27.0315H42.0555L46.0663 17.2292H48.3036V29.6477H46.5399Z" fill="black"/>
<path d="M49.787 27.0745C49.787 25.4915 50.9999 24.5354 53.1522 24.4065L55.6307 24.2683V23.5798C55.6307 22.573 54.9676 22.0046 53.8397 22.0046C53.422 21.9491 52.9983 22.0479 52.6482 22.2825C52.2981 22.5172 52.0457 22.8715 51.9384 23.279H50.2001C50.2518 21.6433 51.7753 20.4822 53.8915 20.4822C56.0517 20.4822 57.4804 21.6609 57.4804 23.4422V29.6477H55.6991V28.1585H55.6561C55.3708 28.6634 54.9551 29.0825 54.4525 29.3718C53.9498 29.6611 53.3786 29.81 52.7987 29.803C52.4178 29.8403 52.0334 29.7975 51.67 29.6773C51.3067 29.5572 50.9724 29.3624 50.6888 29.1055C50.4052 28.8485 50.1785 28.5351 50.0231 28.1854C49.8678 27.8356 49.7874 27.4572 49.787 27.0745ZM55.6307 26.2571V25.5598L53.4012 25.6975C52.2909 25.7669 51.663 26.2483 51.663 27.0227C51.663 27.8147 52.3173 28.3313 53.3153 28.3313C53.6044 28.3509 53.8944 28.3125 54.1684 28.2182C54.4423 28.124 54.6946 27.9758 54.9104 27.7825C55.1262 27.5892 55.3011 27.3546 55.4249 27.0926C55.5486 26.8307 55.6186 26.5466 55.6308 26.2571L55.6307 26.2571Z" fill="black"/>
<path d="M65.2841 23.7089C65.2028 23.2136 64.9383 22.7671 64.5429 22.4579C64.1476 22.1487 63.6505 21.9995 63.1503 22.0399C61.7216 22.0399 60.7753 23.2362 60.7753 25.1215C60.7753 27.0492 61.7303 28.2103 63.1669 28.2103C63.6604 28.2598 64.1543 28.1191 64.5477 27.8169C64.9411 27.5148 65.2045 27.0739 65.2841 26.5843H67.0741C66.9627 27.5205 66.4903 28.3763 65.7574 28.9695C65.0246 29.5626 64.0891 29.8463 63.1503 29.7601C60.5683 29.7601 58.8817 27.9954 58.8817 25.1214C58.8817 22.3065 60.5682 20.4823 63.1327 20.4823C64.0785 20.4021 65.0182 20.6945 65.7514 21.2973C66.4846 21.9 66.9533 22.7654 67.0575 23.7088L65.2841 23.7089Z" fill="black"/>
<path d="M79.1503 26.2913H74.4169L73.2802 29.6477H71.2753L75.7587 17.2292H77.8417L82.3251 29.6477H80.286L79.1503 26.2913ZM74.9071 24.7424H78.6591L76.8095 19.2947H76.7577L74.9071 24.7424Z" fill="black"/>
<path d="M92.0077 25.1213C92.0077 27.9348 90.5018 29.7424 88.2294 29.7424C87.6537 29.7725 87.0812 29.6399 86.5774 29.3598C86.0736 29.0796 85.6589 28.6633 85.3807 28.1584H85.3377V32.6428H83.4794V20.5935H85.2782V22.0993H85.3124C85.6033 21.5969 86.0251 21.1827 86.5327 20.9008C87.0403 20.619 87.6149 20.48 88.1952 20.4987C90.493 20.4987 92.0077 22.3152 92.0077 25.1213ZM90.0975 25.1213C90.0975 23.2878 89.1503 22.0827 87.7049 22.0827C86.285 22.0827 85.3299 23.3132 85.3299 25.1213C85.3299 26.9455 86.285 28.1672 87.7049 28.1672C89.1503 28.1672 90.0975 26.9709 90.0975 25.1213Z" fill="black"/>
<path d="M101.973 25.1213C101.973 27.9348 100.467 29.7424 98.1942 29.7424C97.6186 29.7725 97.0461 29.6399 96.5423 29.3598C96.0385 29.0796 95.6238 28.6633 95.3456 28.1584H95.3026V32.6428H93.4442V20.5935H95.243V22.0993H95.2772C95.5682 21.5969 95.9899 21.1827 96.4975 20.9008C97.0052 20.619 97.5797 20.48 98.16 20.4987C100.458 20.4987 101.973 22.3151 101.973 25.1213ZM100.062 25.1213C100.062 23.2878 99.1151 22.0827 97.6698 22.0827C96.2499 22.0827 95.2948 23.3132 95.2948 25.1213C95.2948 26.9455 96.2499 28.1672 97.6698 28.1672C99.1151 28.1672 100.062 26.9709 100.062 25.1213H100.062Z" fill="black"/>
<path d="M108.559 26.1878C108.696 27.4192 109.893 28.2278 111.527 28.2278C113.094 28.2278 114.221 27.4192 114.221 26.3088C114.221 25.345 113.541 24.7678 111.932 24.3723L110.322 23.9841C108.042 23.4334 106.983 22.3669 106.983 20.6365C106.983 18.4939 108.851 17.0222 111.502 17.0222C114.126 17.0222 115.925 18.4939 115.985 20.6365H114.109C113.997 19.3972 112.973 18.6492 111.475 18.6492C109.978 18.6492 108.954 19.406 108.954 20.5076C108.954 21.3855 109.608 21.9021 111.209 22.2976L112.577 22.6335C115.125 23.2361 116.183 24.2595 116.183 26.0764C116.183 28.3996 114.333 29.8547 111.39 29.8547C108.636 29.8547 106.776 28.4338 106.656 26.1877L108.559 26.1878Z" fill="black"/>
<path d="M120.194 18.4509V20.5935H121.916V22.0652H120.194V27.0569C120.194 27.8323 120.539 28.1936 121.296 28.1936C121.5 28.19 121.704 28.1757 121.907 28.1506V29.6135C121.567 29.6771 121.221 29.7059 120.875 29.6994C119.042 29.6994 118.327 29.011 118.327 27.2551V22.0651H117.011V20.5935H118.327V18.4509H120.194Z" fill="black"/>
<path d="M122.912 25.1213C122.912 22.2722 124.59 20.4822 127.206 20.4822C129.831 20.4822 131.501 22.2722 131.501 25.1213C131.501 27.9778 129.84 29.76 127.206 29.76C124.573 29.76 122.912 27.9778 122.912 25.1213ZM129.607 25.1213C129.607 23.1667 128.712 22.0134 127.206 22.0134C125.7 22.0134 124.805 23.1755 124.805 25.1213C124.805 27.0832 125.7 28.2278 127.206 28.2278C128.712 28.2278 129.607 27.0832 129.607 25.1213H129.607Z" fill="black"/>
<path d="M133.033 20.5936H134.806V22.1346H134.849C134.968 21.6533 135.25 21.228 135.647 20.9301C136.044 20.6322 136.531 20.48 137.026 20.4989C137.24 20.4981 137.454 20.5214 137.663 20.5682V22.3065C137.393 22.2239 137.111 22.186 136.828 22.1942C136.558 22.1833 136.289 22.2309 136.039 22.3337C135.789 22.4366 135.565 22.5924 135.381 22.7903C135.197 22.9881 135.058 23.2235 134.973 23.4802C134.889 23.7368 134.861 24.0087 134.891 24.2772V29.6478H133.033V20.5936Z" fill="black"/>
<path d="M146.231 26.9885C145.981 28.6321 144.381 29.76 142.333 29.76C139.699 29.76 138.064 27.9954 138.064 25.1643C138.064 22.324 139.708 20.4822 142.255 20.4822C144.76 20.4822 146.335 22.2029 146.335 24.9485V25.5852H139.94V25.6975C139.911 26.0307 139.953 26.3664 140.063 26.6822C140.173 26.9981 140.349 27.2868 140.579 27.5294C140.81 27.7719 141.089 27.9627 141.399 28.089C141.709 28.2153 142.042 28.2743 142.376 28.262C142.815 28.3031 143.256 28.2014 143.632 27.972C144.009 27.7425 144.302 27.3976 144.467 26.9885L146.231 26.9885ZM139.949 24.2859H144.475C144.492 23.9863 144.447 23.6865 144.342 23.4053C144.237 23.1241 144.076 22.8675 143.867 22.6518C143.659 22.436 143.408 22.2657 143.13 22.1514C142.853 22.0372 142.555 21.9816 142.255 21.988C141.952 21.9862 141.652 22.0444 141.372 22.1591C141.092 22.2739 140.838 22.4429 140.623 22.6566C140.409 22.8702 140.239 23.1242 140.123 23.4038C140.007 23.6835 139.948 23.9833 139.949 24.2859H139.949Z" fill="black"/>
<path d="M25.3877 19.0425C25.3988 18.1746 25.6294 17.3235 26.0579 16.5686C26.4863 15.8137 27.0988 15.1794 27.8382 14.7248C27.3685 14.0539 26.7488 13.5018 26.0283 13.1123C25.3078 12.7228 24.5065 12.5067 23.6878 12.4811C21.9416 12.2978 20.2487 13.526 19.3588 13.526C18.4518 13.526 17.0817 12.4993 15.6064 12.5296C14.6521 12.5604 13.7221 12.8379 12.9069 13.3351C12.0918 13.8322 11.4193 14.532 10.955 15.3663C8.9439 18.8483 10.444 23.9657 12.3705 26.7803C13.3344 28.1585 14.4609 29.698 15.9349 29.6435C17.3773 29.5836 17.916 28.7237 19.6571 28.7237C21.382 28.7237 21.8874 29.6435 23.3914 29.6087C24.9391 29.5836 25.9143 28.2244 26.8444 26.8331C27.5369 25.8511 28.0698 24.7657 28.4234 23.6172C27.5242 23.2369 26.7568 22.6003 26.217 21.7868C25.6771 20.9733 25.3887 20.0189 25.3877 19.0425Z" fill="black"/>
<path d="M22.5471 10.6299C23.391 9.61682 23.8068 8.31468 23.7061 7C22.4168 7.13541 21.2258 7.75161 20.3705 8.72582C19.9524 9.20174 19.6321 9.75542 19.428 10.3552C19.2239 10.955 19.1401 11.5891 19.1812 12.2213C19.8261 12.228 20.4641 12.0882 21.0471 11.8125C21.6301 11.5369 22.143 11.1325 22.5471 10.6299V10.6299Z" fill="black"/>
<path d="M38.2172 7.88397C38.6068 7.85601 38.9977 7.91487 39.3618 8.0563C39.726 8.19773 40.0541 8.41822 40.3227 8.70184C40.5913 8.98547 40.7936 9.32516 40.915 9.69643C41.0364 10.0677 41.0739 10.4613 41.0248 10.8488C41.0248 12.7551 39.9945 13.8508 38.2172 13.8508H36.0619V7.88397H38.2172ZM36.9886 13.007H38.1136C38.392 13.0236 38.6707 12.978 38.9292 12.8733C39.1877 12.7687 39.4197 12.6078 39.6082 12.4022C39.7967 12.1967 39.937 11.9516 40.0188 11.685C40.1007 11.4184 40.1221 11.1369 40.0814 10.861C40.1191 10.5861 40.0956 10.3064 40.0125 10.0417C39.9293 9.77704 39.7887 9.53403 39.6006 9.3301C39.4126 9.12617 39.1817 8.96636 38.9247 8.86213C38.6676 8.75789 38.3906 8.71181 38.1136 8.72718H36.9886V13.007Z" fill="black"/>
<path d="M42.0716 11.5974C42.0433 11.3014 42.0772 11.0029 42.171 10.7208C42.2649 10.4387 42.4166 10.1794 42.6166 9.95942C42.8165 9.73943 43.0602 9.56367 43.3321 9.44339C43.6039 9.32312 43.8979 9.26099 44.1952 9.26099C44.4924 9.26099 44.7864 9.32312 45.0583 9.44339C45.3301 9.56367 45.5738 9.73943 45.7738 9.95942C45.9737 10.1794 46.1255 10.4387 46.2193 10.7208C46.3132 11.0029 46.347 11.3014 46.3187 11.5974C46.3475 11.8936 46.3141 12.1926 46.2205 12.4751C46.1269 12.7576 45.9752 13.0174 45.7753 13.2379C45.5753 13.4583 45.3314 13.6344 45.0592 13.7549C44.7871 13.8755 44.4928 13.9377 44.1952 13.9377C43.8975 13.9377 43.6032 13.8755 43.3311 13.7549C43.059 13.6344 42.8151 13.4583 42.6151 13.2379C42.4151 13.0174 42.2634 12.7576 42.1698 12.4751C42.0762 12.1926 42.0428 11.8936 42.0716 11.5974V11.5974ZM45.4046 11.5974C45.4046 10.6213 44.9661 10.0505 44.1966 10.0505C43.4242 10.0505 42.9896 10.6213 42.9896 11.5974C42.9896 12.5813 43.4242 13.1477 44.1966 13.1477C44.9662 13.1477 45.4046 12.5773 45.4046 11.5974H45.4046Z" fill="black"/>
<path d="M51.9642 13.8508H51.0424L50.1117 10.5344H50.0414L49.1146 13.8508H48.2015L46.9603 9.3479H47.8617L48.6683 12.7839H48.7347L49.6605 9.3479H50.5131L51.4388 12.7839H51.5092L52.3119 9.3479H53.2006L51.9642 13.8508Z" fill="black"/>
<path d="M54.2445 9.34795H55.1V10.0633H55.1664C55.279 9.80635 55.469 9.59098 55.7099 9.44718C55.9508 9.30337 56.2305 9.2383 56.5101 9.26102C56.7292 9.24455 56.9492 9.27759 57.1538 9.35768C57.3584 9.43778 57.5424 9.56288 57.6921 9.72373C57.8417 9.88457 57.9533 10.077 58.0185 10.2869C58.0837 10.4967 58.1009 10.7185 58.0687 10.9358V13.8508H57.1801V11.159C57.1801 10.4354 56.8656 10.0755 56.2084 10.0755C56.0596 10.0686 55.9111 10.0939 55.7731 10.1497C55.635 10.2055 55.5107 10.2906 55.4085 10.3989C55.3064 10.5073 55.2289 10.6365 55.1814 10.7776C55.1339 10.9188 55.1174 11.0685 55.1332 11.2166V13.8509H54.2445L54.2445 9.34795Z" fill="black"/>
<path d="M59.4847 7.59009H60.3734V13.8508H59.4847V7.59009Z" fill="black"/>
<path d="M61.6087 11.5974C61.5804 11.3014 61.6143 11.0029 61.7081 10.7208C61.802 10.4387 61.9537 10.1794 62.1537 9.95942C62.3536 9.73943 62.5973 9.56367 62.8692 9.44339C63.141 9.32312 63.435 9.26099 63.7323 9.26099C64.0295 9.26099 64.3235 9.32312 64.5954 9.44339C64.8672 9.56367 65.1109 9.73943 65.3109 9.95942C65.5108 10.1794 65.6626 10.4387 65.7564 10.7208C65.8503 11.0029 65.8841 11.3014 65.8558 11.5974C65.8847 11.8936 65.8512 12.1926 65.7576 12.4751C65.664 12.7576 65.5124 13.0174 65.3124 13.2379C65.1124 13.4583 64.8685 13.6344 64.5964 13.7549C64.3242 13.8755 64.0299 13.9377 63.7323 13.9377C63.4347 13.9377 63.1403 13.8755 62.8682 13.7549C62.5961 13.6344 62.3522 13.4583 62.1522 13.2379C61.9522 13.0174 61.8005 12.7576 61.7069 12.4751C61.6133 12.1926 61.5799 11.8936 61.6087 11.5974V11.5974ZM64.9417 11.5974C64.9417 10.6213 64.5033 10.0505 63.7337 10.0505C62.9613 10.0505 62.5267 10.6213 62.5267 11.5974C62.5267 12.5813 62.9613 13.1477 63.7337 13.1477C64.5033 13.1477 64.9417 12.5773 64.9417 11.5974H64.9417Z" fill="black"/>
<path d="M66.7914 12.5774C66.7914 11.7668 67.3949 11.2996 68.4662 11.2331L69.6859 11.1628V10.7742C69.6859 10.2986 69.3715 10.03 68.764 10.03C68.2679 10.03 67.9242 10.2122 67.8256 10.5305H66.9652C67.056 9.75708 67.7836 9.26099 68.805 9.26099C69.934 9.26099 70.5707 9.82299 70.5707 10.7742V13.8508H69.7152V13.218H69.6449C69.5022 13.445 69.3018 13.6301 69.0642 13.7543C68.8265 13.8785 68.5602 13.9374 68.2924 13.925C68.1033 13.9447 67.9123 13.9245 67.7315 13.8658C67.5507 13.8071 67.3843 13.7112 67.2429 13.5842C67.1015 13.4572 66.9882 13.3021 66.9105 13.1286C66.8327 12.9552 66.7921 12.7674 66.7914 12.5774V12.5774ZM69.6859 12.1926V11.8162L68.5863 11.8865C67.9662 11.928 67.6849 12.1389 67.6849 12.5359C67.6849 12.9411 68.0365 13.177 68.5199 13.177C68.6616 13.1913 68.8047 13.177 68.9407 13.1349C69.0767 13.0928 69.2028 13.0238 69.3116 12.932C69.4204 12.8401 69.5096 12.7274 69.5739 12.6003C69.6382 12.4733 69.6763 12.3347 69.6859 12.1926V12.1926Z" fill="black"/>
<path d="M71.7386 11.5974C71.7386 10.1746 72.4701 9.27321 73.6078 9.27321C73.8892 9.26024 74.1685 9.32764 74.413 9.46754C74.6575 9.60743 74.8572 9.81404 74.9886 10.0632H75.0551V7.59009H75.9437V13.8508H75.0922V13.1394H75.0219C74.8803 13.3869 74.6736 13.5909 74.4244 13.7294C74.1751 13.8679 73.8927 13.9355 73.6078 13.925C72.4623 13.9251 71.7386 13.0237 71.7386 11.5974ZM72.6566 11.5974C72.6566 12.5525 73.1068 13.1272 73.8598 13.1272C74.6088 13.1272 75.0717 12.5442 75.0717 11.6013C75.0717 10.6629 74.6039 10.0715 73.8598 10.0715C73.1117 10.0715 72.6566 10.6502 72.6566 11.5974H72.6566Z" fill="black"/>
<path d="M79.6205 11.5974C79.5922 11.3015 79.6261 11.0029 79.7199 10.7208C79.8138 10.4388 79.9656 10.1794 80.1656 9.95943C80.3655 9.73944 80.6092 9.56367 80.8811 9.44339C81.153 9.32312 81.447 9.26099 81.7443 9.26099C82.0416 9.26099 82.3356 9.32312 82.6074 9.44339C82.8793 9.56367 83.123 9.73944 83.323 9.95943C83.523 10.1794 83.6747 10.4388 83.7686 10.7208C83.8625 11.0029 83.8963 11.3015 83.8681 11.5974C83.8969 11.8937 83.8634 12.1927 83.7698 12.4752C83.6761 12.7577 83.5245 13.0175 83.3244 13.2379C83.1244 13.4583 82.8805 13.6345 82.6084 13.755C82.3363 13.8755 82.0419 13.9378 81.7443 13.9378C81.4466 13.9378 81.1523 13.8755 80.8802 13.755C80.608 13.6345 80.3641 13.4583 80.1641 13.2379C79.9641 13.0175 79.8124 12.7577 79.7188 12.4752C79.6252 12.1927 79.5917 11.8937 79.6205 11.5974V11.5974ZM82.9535 11.5974C82.9535 10.6214 82.515 10.0506 81.7455 10.0506C80.973 10.0506 80.5385 10.6214 80.5385 11.5975C80.5385 12.5813 80.9731 13.1477 81.7455 13.1477C82.515 13.1477 82.9535 12.5774 82.9535 11.5974H82.9535Z" fill="black"/>
<path d="M85.0604 9.34795H85.9159V10.0633H85.9823C86.095 9.80635 86.285 9.59098 86.5258 9.44718C86.7667 9.30337 87.0464 9.2383 87.3261 9.26102C87.5452 9.24455 87.7652 9.27759 87.9697 9.35768C88.1743 9.43778 88.3583 9.56288 88.508 9.72373C88.6577 9.88457 88.7692 10.077 88.8344 10.2869C88.8997 10.4967 88.9168 10.7185 88.8846 10.9358V13.8508H87.996V11.159C87.996 10.4354 87.6815 10.0755 87.0243 10.0755C86.8755 10.0686 86.727 10.0939 86.589 10.1497C86.4509 10.2055 86.3266 10.2906 86.2244 10.3989C86.1223 10.5073 86.0448 10.6365 85.9973 10.7776C85.9498 10.9188 85.9333 11.0685 85.9491 11.2166V13.8509H85.0604V9.34795Z" fill="black"/>
<path d="M93.9061 8.22681V9.36841H94.8817V10.1169H93.9061V12.4324C93.9061 12.9041 94.1005 13.1106 94.5428 13.1106C94.6561 13.1102 94.7692 13.1034 94.8817 13.0901V13.8303C94.7221 13.8589 94.5604 13.8741 94.3983 13.8757C93.41 13.8757 93.0165 13.5281 93.0165 12.6599V10.1169H92.3016V9.36837H93.0165V8.22681H93.9061Z" fill="black"/>
<path d="M96.0956 7.59009H96.9764V10.0715H97.0467C97.1649 9.81222 97.3601 9.59563 97.6058 9.45128C97.8515 9.30693 98.1357 9.24185 98.4197 9.2649C98.6377 9.25304 98.8556 9.28943 99.0579 9.37147C99.2602 9.45351 99.4418 9.57918 99.59 9.73952C99.7381 9.89986 99.849 10.0909 99.9148 10.299C99.9806 10.5072 99.9996 10.7273 99.9705 10.9436V13.8508H99.081V11.1628C99.081 10.4436 98.746 10.0793 98.1181 10.0793C97.9653 10.0668 97.8117 10.0878 97.6679 10.1409C97.5242 10.1939 97.3937 10.2777 97.2857 10.3865C97.1777 10.4952 97.0948 10.6262 97.0427 10.7704C96.9907 10.9145 96.9707 11.0683 96.9843 11.2209V13.8508H96.0956L96.0956 7.59009Z" fill="black"/>
<path d="M105.152 12.6351C105.031 13.0466 104.77 13.4026 104.413 13.6408C104.056 13.8789 103.627 13.9841 103.201 13.9378C102.904 13.9456 102.61 13.8888 102.337 13.7713C102.065 13.6538 101.821 13.4783 101.623 13.2572C101.425 13.0361 101.278 12.7745 101.191 12.4907C101.104 12.2069 101.08 11.9076 101.121 11.6136C101.081 11.3187 101.106 11.0188 101.192 10.7341C101.279 10.4494 101.425 10.1867 101.622 9.9636C101.819 9.74053 102.062 9.56235 102.333 9.44115C102.605 9.31994 102.9 9.25852 103.197 9.26106C104.45 9.26106 105.206 10.1171 105.206 11.5311V11.8412H102.026V11.891C102.012 12.0562 102.033 12.2225 102.087 12.3793C102.141 12.536 102.228 12.6797 102.341 12.8012C102.453 12.9226 102.59 13.0192 102.743 13.0846C102.895 13.15 103.06 13.1828 103.225 13.181C103.438 13.2065 103.653 13.1682 103.844 13.071C104.035 12.9738 104.192 12.822 104.297 12.6351L105.152 12.6351ZM102.026 11.1839H104.301C104.312 11.0328 104.291 10.881 104.24 10.7383C104.189 10.5955 104.109 10.4651 104.005 10.3552C103.9 10.2454 103.774 10.1585 103.634 10.1004C103.494 10.0422 103.344 10.0139 103.192 10.0174C103.039 10.0155 102.886 10.0443 102.744 10.1023C102.601 10.1602 102.472 10.2461 102.363 10.3548C102.255 10.4635 102.169 10.5929 102.111 10.7353C102.053 10.8777 102.024 11.0302 102.026 11.1839H102.026Z" fill="black"/>
</svg>
