<svg id="PIN" xmlns="http://www.w3.org/2000/svg" width="16" height="16.001" viewBox="0 0 16 16.001">
  <path id="Icon" d="M8,0A8,8,0,0,0,5.085,15.453a7.69,7.69,0,0,1,.028-2.3c.145-.624.938-3.977.938-3.977a2.889,2.889,0,0,1-.239-1.188c0-1.112.645-1.943,1.448-1.943A1,1,0,0,1,8.271,7.175a16.119,16.119,0,0,1-.663,2.664,1.162,1.162,0,0,0,1.185,1.446c1.422,0,2.515-1.5,2.515-3.664A3.158,3.158,0,0,0,7.966,4.366,3.463,3.463,0,0,0,4.354,7.838a3.112,3.112,0,0,0,.6,1.826A.239.239,0,0,1,5,9.893c-.061.253-.2.8-.222.907-.035.146-.116.177-.268.107a3.586,3.586,0,0,1-1.624-3.1c0-2.524,1.834-4.841,5.286-4.841a4.7,4.7,0,0,1,4.932,4.621c0,2.757-1.738,4.976-4.151,4.976a2.141,2.141,0,0,1-1.834-.919s-.4,1.528-.5,1.9a8.94,8.94,0,0,1-.994,2.1A8,8,0,1,0,8,0" fill="#1f1844"/>
</svg>
