<svg id="Racial_Hero_BG" data-name="Racial Hero BG" xmlns="http://www.w3.org/2000/svg" width="707.905" height="433.304" viewBox="0 0 707.905 433.304">
  <path id="Path_518" data-name="Path 518" d="M223,167.03h22.414l40.108,48.21V545.961H223Z" transform="translate(93.438 -112.748)" fill="#c1c1c1"/>
  <path id="Path_519" data-name="Path 519" d="M333.12,150.1h22.414l40.108,17.524V499.368H333.12Z" transform="translate(138.944 -119.744)" fill="#c1c1c1"/>
  <path id="Path_520" data-name="Path 520" d="M30.48,204.37H42.62l21.707,16.352V530.531H30.48Z" transform="translate(13.882 -97.317)" fill="#c1c1c1"/>
  <path id="Path_521" data-name="Path 521" d="M50.05,215.91H62.19L83.9,231.445V525.762H50.05Z" transform="translate(21.969 -92.548)" fill="#c1c1c1"/>
  <rect id="Rectangle_133" data-name="Rectangle 133" width="64.415" height="234.122" transform="translate(584.459 199.182)" fill="#c1c1c1"/>
  <rect id="Rectangle_134" data-name="Rectangle 134" width="59.031" height="430.868" transform="translate(648.874 2.346)" fill="#868686"/>
  <path id="Path_522" data-name="Path 522" d="M443.24,158.234l21.184-27.954V561.148H443.24Z" transform="translate(184.45 -127.934)" fill="#aeaeae"/>
  <path id="Path_523" data-name="Path 523" d="M104.224,270.6h-16.8V260.14H58.52V479.927h45.7Z" transform="translate(25.469 -74.271)" fill="#aeaeae"/>
  <path id="Path_524" data-name="Path 524" d="M254.43,388.953V143.176h20.563V128.62h36v15.772h24.18V378.9H302.254Z" transform="translate(106.426 -128.62)" fill="#aeaeae"/>
  <path id="Path_525" data-name="Path 525" d="M291.9,212.98H273.583v15.475h-9.808v-9.836H244.16v14.387H231.681V218.619H211.175v14.387H174.642V271.87h0V372.252H150.575V385.9h-10.7v40.5h-31.2v20.478H79.263V426.407H64.113v29.579H45.147V315.2H28.217V304.727H-.91v221.8l29.367.445H340.429V258.359Z" transform="translate(0.91 -93.759)" fill="#868686"/>
  <rect id="Rectangle_136" data-name="Rectangle 136" width="94.263" height="21.792" transform="translate(487.016 119.263)" fill="#868686"/>
  <path id="Path_526" data-name="Path 526" d="M485.837,226.717s-92.511-1.865-92.511-1.328l-30.06.113v46.114H335.892L309.818,311.37,231.27,331,205.18,521.886H504.195V228.243Z" transform="translate(95.442 -88.672)" fill="#868686"/>
  <g id="Group_4189" data-name="Group 4189" transform="translate(188.102 31.77)">
    <rect id="Rectangle_137" data-name="Rectangle 137" width="8.734" height="401.518" transform="translate(485.914)" fill="#999"/>
    <rect id="Rectangle_138" data-name="Rectangle 138" width="8.734" height="401.518" transform="translate(468.983)" fill="#999"/>
    <rect id="Rectangle_139" data-name="Rectangle 139" width="8.734" height="401.518" transform="translate(504.625)" fill="#999"/>
    <rect id="Rectangle_140" data-name="Rectangle 140" width="4.466" height="13.567" transform="translate(314.064 90.221)" fill="#999"/>
    <rect id="Rectangle_141" data-name="Rectangle 141" width="4.466" height="13.567" transform="translate(326.656 90.221)" fill="#999"/>
    <rect id="Rectangle_142" data-name="Rectangle 142" width="4.466" height="13.567" transform="translate(339.248 90.221)" fill="#999"/>
    <rect id="Rectangle_143" data-name="Rectangle 143" width="4.466" height="13.567" transform="translate(351.84 90.221)" fill="#999"/>
    <rect id="Rectangle_144" data-name="Rectangle 144" width="4.466" height="13.567" transform="translate(364.432 90.221)" fill="#999"/>
    <rect id="Rectangle_145" data-name="Rectangle 145" width="4.466" height="13.567" transform="translate(377.024 90.221)" fill="#999"/>
    <path id="Path_527" data-name="Path 527" d="M328.71,243.512v6.882h93.556V238.58H328.71Z" transform="translate(-50.98 -114.95)" fill="#999"/>
    <path id="Path_528" data-name="Path 528" d="M328.71,256.77v11.815h93.556V256.77H328.71Z" transform="translate(-50.98 -107.433)" fill="#999"/>
    <path id="Path_529" data-name="Path 529" d="M328.71,274.97v11.8h93.556v-11.8H328.71Z" transform="translate(-50.98 -99.912)" fill="#999"/>
    <rect id="Rectangle_146" data-name="Rectangle 146" width="93.556" height="11.815" transform="translate(277.73 200.765)" fill="#999"/>
    <rect id="Rectangle_147" data-name="Rectangle 147" width="93.556" height="11.815" transform="translate(277.73 226.471)" fill="#999"/>
    <rect id="Rectangle_148" data-name="Rectangle 148" width="30.766" height="11.815" transform="translate(234.908 201.09)" fill="#999"/>
    <rect id="Rectangle_149" data-name="Rectangle 149" width="30.766" height="11.815" transform="translate(234.908 224.761)" fill="#999"/>
    <rect id="Rectangle_150" data-name="Rectangle 150" width="30.766" height="11.815" transform="translate(234.908 248.433)" fill="#999"/>
    <rect id="Rectangle_151" data-name="Rectangle 151" width="30.766" height="11.815" transform="translate(234.908 272.119)" fill="#999"/>
    <rect id="Rectangle_152" data-name="Rectangle 152" width="30.766" height="11.815" transform="translate(234.908 295.791)" fill="#999"/>
    <rect id="Rectangle_153" data-name="Rectangle 153" width="30.766" height="11.815" transform="translate(234.908 319.462)" fill="#999"/>
    <rect id="Rectangle_154" data-name="Rectangle 154" width="30.766" height="11.815" transform="translate(234.908 343.134)" fill="#999"/>
    <rect id="Rectangle_155" data-name="Rectangle 155" width="30.766" height="11.815" transform="translate(234.908 366.806)" fill="#999"/>
    <rect id="Rectangle_156" data-name="Rectangle 156" width="93.556" height="11.815" transform="translate(277.73 252.178)" fill="#999"/>
    <rect id="Rectangle_157" data-name="Rectangle 157" width="93.556" height="11.815" transform="translate(277.73 277.885)" fill="#999"/>
    <rect id="Rectangle_158" data-name="Rectangle 158" width="93.556" height="11.815" transform="translate(277.73 303.592)" fill="#999"/>
    <rect id="Rectangle_159" data-name="Rectangle 159" width="93.556" height="11.815" transform="translate(277.73 329.299)" fill="#999"/>
    <rect id="Rectangle_160" data-name="Rectangle 160" width="93.556" height="11.815" transform="translate(277.73 355.005)" fill="#999"/>
    <rect id="Rectangle_161" data-name="Rectangle 161" width="6.232" height="218.755" transform="translate(0 171.765)" fill="#999"/>
    <rect id="Rectangle_162" data-name="Rectangle 162" width="5.625" height="218.755" transform="translate(38.27 171.765)" fill="#999"/>
    <rect id="Rectangle_163" data-name="Rectangle 163" width="5.95" height="218.755" transform="translate(76.06 171.765)" fill="#999"/>
  </g>
</svg>
