<svg id="TW" xmlns="http://www.w3.org/2000/svg" width="16" height="16" viewBox="0 0 16 16">
  <path id="Icon" d="M14,16H2a2,2,0,0,1-2-2V2A2,2,0,0,1,2,0H14a2,2,0,0,1,2,2V14A2,2,0,0,1,14,16ZM3,11.148H3a5.838,5.838,0,0,0,3.14.914A5.779,5.779,0,0,0,11.98,6.228c0-.087,0-.176,0-.264A4.2,4.2,0,0,0,13,4.9a4.106,4.106,0,0,1-1.18.324,2.061,2.061,0,0,0,.9-1.136,4.074,4.074,0,0,1-1.3.5,2.052,2.052,0,0,0-3.548,1.4,2.291,2.291,0,0,0,.051.468A5.837,5.837,0,0,1,3.7,4.312a2.06,2.06,0,0,0,.635,2.74A2.1,2.1,0,0,1,3.4,6.8v.028A2.057,2.057,0,0,0,5.048,8.836a2.02,2.02,0,0,1-.54.072,2.081,2.081,0,0,1-.384-.036A2.048,2.048,0,0,0,6.04,10.3a4.093,4.093,0,0,1-2.548.88A4.007,4.007,0,0,1,3,11.148Z" fill="#1f1844"/>
</svg>
